<svg id="Layer_1" data-name="Layer 1" xmlns="http://www.w3.org/2000/svg" viewBox="0 0 541 253"><rect x="0.5" y="0.5" width="540" height="252" style="fill:#24356f;stroke:#fff"/><rect x="23.37" y="23.5" width="495.13" height="207" style="fill:#24356f;stroke:#fff;stroke-width:6px"/><path d="M227.08,218.42h0l1.6-4.42h2.5l-3,6.93v4.49h-2.31v-4.49L223,214h2.6Z" transform="translate(-116.5 -178.5)" style="fill:#fff"/><path d="M230.84,219.17a3.75,3.75,0,0,1,.58-1.42,2.5,2.5,0,0,1,1-.86,3.84,3.84,0,0,1,1.6-.3,3.94,3.94,0,0,1,1.64.27,2.24,2.24,0,0,1,1,.85,3.85,3.85,0,0,1,.55,1.43,10.43,10.43,0,0,1,.16,2,9.38,9.38,0,0,1-.18,1.95,3.74,3.74,0,0,1-.57,1.42,2.4,2.4,0,0,1-1,.84,4.13,4.13,0,0,1-1.59.27,4.22,4.22,0,0,1-1.65-.25,2.14,2.14,0,0,1-1-.83,3.73,3.73,0,0,1-.55-1.42,11.57,11.57,0,0,1-.15-2A9.43,9.43,0,0,1,230.84,219.17Zm2.06,3.17a4.79,4.79,0,0,0,.16,1,1.4,1.4,0,0,0,.36.62.89.89,0,0,0,.64.22.93.93,0,0,0,.92-.7,10.48,10.48,0,0,0,0-4.64.93.93,0,0,0-.92-.7.89.89,0,0,0-.64.22,1.4,1.4,0,0,0-.36.62,4.79,4.79,0,0,0-.16,1c0,.38,0,.78,0,1.22S232.88,222,232.9,222.34Z" transform="translate(-116.5 -178.5)" style="fill:#fff"/><path d="M243.18,224.42a2.12,2.12,0,0,1-.92.91,2.9,2.9,0,0,1-1.28.27,2.22,2.22,0,0,1-1.62-.55,2.51,2.51,0,0,1-.57-1.85v-6.38H241v5.93a1.49,1.49,0,0,0,.22.94.92.92,0,0,0,.72.26c.78,0,1.17-.47,1.17-1.42v-5.71h2.21v8.6h-2.11v-1Z" transform="translate(-116.5 -178.5)" style="fill:#fff"/><path d="M249.06,216.82V218h0a3,3,0,0,1,.81-1,1.85,1.85,0,0,1,1.17-.38h.2l.2,0v2.12l-.34,0h-.35a2.24,2.24,0,0,0-.57.08,1.66,1.66,0,0,0-.53.27,1.33,1.33,0,0,0-.39.48,1.76,1.76,0,0,0-.14.73v5.16H247v-8.6Z" transform="translate(-116.5 -178.5)" style="fill:#fff"/><path d="M258.06,222.9a1.32,1.32,0,0,0,.29.9,1.07,1.07,0,0,0,.86.34,1.21,1.21,0,0,0,.81-.25.93.93,0,0,0,.31-.77.79.79,0,0,0-.24-.63,1.89,1.89,0,0,0-.56-.35l-1.55-.56a2.92,2.92,0,0,1-1.38-.9,2.33,2.33,0,0,1-.46-1.5,2.8,2.8,0,0,1,.17-1,2.18,2.18,0,0,1,.56-.82,3,3,0,0,1,1-.56,4.38,4.38,0,0,1,1.44-.21,3.32,3.32,0,0,1,2.23.64,2.3,2.3,0,0,1,.72,1.81v.35h-2a1.78,1.78,0,0,0-.21-1,.86.86,0,0,0-.76-.31,1.16,1.16,0,0,0-.73.23.79.79,0,0,0-.31.69.87.87,0,0,0,.2.58,1.52,1.52,0,0,0,.76.43l1.33.45a3,3,0,0,1,1.47.92,2.47,2.47,0,0,1,.43,1.54,2.79,2.79,0,0,1-.24,1.2,2.47,2.47,0,0,1-.66.84,2.78,2.78,0,0,1-1,.48,5.73,5.73,0,0,1-1.29.14,5.56,5.56,0,0,1-1.54-.18,2.24,2.24,0,0,1-1-.52,1.87,1.87,0,0,1-.5-.86,4,4,0,0,1-.15-1.13v-.3h2Z" transform="translate(-116.5 -178.5)" style="fill:#fff"/><path d="M263.69,219.25a3,3,0,0,1,.24-1.26,2.09,2.09,0,0,1,.65-.81,2.51,2.51,0,0,1,1-.45,4.87,4.87,0,0,1,1.17-.14,5.73,5.73,0,0,1,1.6.19,2.19,2.19,0,0,1,.95.55,1.81,1.81,0,0,1,.45.84,4.41,4.41,0,0,1,.12,1.06v4.53a5.57,5.57,0,0,0,.06.94,3.05,3.05,0,0,0,.21.72H268a1.92,1.92,0,0,1-.17-.44c0-.15-.07-.3-.1-.45h0a1.85,1.85,0,0,1-.89.87,3.66,3.66,0,0,1-1.3.2,2.22,2.22,0,0,1-1-.2,1.64,1.64,0,0,1-.64-.55,2.45,2.45,0,0,1-.35-.79,3.37,3.37,0,0,1-.11-.88,4,4,0,0,1,.12-1,2,2,0,0,1,.4-.76,2.22,2.22,0,0,1,.67-.52,5.49,5.49,0,0,1,1-.36l1.25-.34a1.38,1.38,0,0,0,.69-.35,1,1,0,0,0,.19-.66,1.18,1.18,0,0,0-.23-.77,1,1,0,0,0-.79-.28,1,1,0,0,0-.77.3,1.22,1.22,0,0,0-.26.82v.24h-2Zm3.55,2.15a3,3,0,0,1-.46.15,1.73,1.73,0,0,0-1,.48,1.33,1.33,0,0,0-.29.91,1.72,1.72,0,0,0,.19.85.66.66,0,0,0,.64.35,1.51,1.51,0,0,0,.46-.07,1.24,1.24,0,0,0,.44-.23,1.14,1.14,0,0,0,.33-.42,1.26,1.26,0,0,0,.13-.6v-1.7A1.94,1.94,0,0,1,267.24,221.4Z" transform="translate(-116.5 -178.5)" style="fill:#fff"/><path d="M277.85,216.82l-2.16,8.6h-2.56l-2.23-8.6h2.31l1.23,6.16h0l1.17-6.16Z" transform="translate(-116.5 -178.5)" style="fill:#fff"/><path d="M281.11,213.87v1.89H278.9v-1.89Zm0,2.95v8.6H278.9v-8.6Z" transform="translate(-116.5 -178.5)" style="fill:#fff"/><path d="M284.94,216.82v1h0a2.27,2.27,0,0,1,.91-.93,2.66,2.66,0,0,1,1.28-.3,2.16,2.16,0,0,1,1.62.58,2.58,2.58,0,0,1,.57,1.87v6.38h-2.21v-5.93a1.49,1.49,0,0,0-.22-.94.92.92,0,0,0-.72-.26c-.78,0-1.17.47-1.17,1.42v5.71h-2.21v-8.6Z" transform="translate(-116.5 -178.5)" style="fill:#fff"/><path d="M297.43,225a3.42,3.42,0,0,1-.82,2.5,3.81,3.81,0,0,1-2.76.83,3.44,3.44,0,0,1-2.17-.6,2,2,0,0,1-.76-1.7H293a.75.75,0,0,0,.34.65,1.11,1.11,0,0,0,.34.18,1.23,1.23,0,0,0,.39.06,1,1,0,0,0,.95-.43,2,2,0,0,0,.27-1.07v-1.14h0a2.65,2.65,0,0,1-.83.77,2,2,0,0,1-1,.29,2.23,2.23,0,0,1-2-1,6.36,6.36,0,0,1-.66-3.35,13.38,13.38,0,0,1,.09-1.54,4.85,4.85,0,0,1,.36-1.42,2.59,2.59,0,0,1,.82-1,2.38,2.38,0,0,1,1.43-.4,2.1,2.1,0,0,1,1,.26,2,2,0,0,1,.82.93h0v-1h2.11Zm-4.37-2.75a2.47,2.47,0,0,0,.16.71,1.22,1.22,0,0,0,.33.5.86.86,0,0,0,.57.18.91.91,0,0,0,.58-.18,1.17,1.17,0,0,0,.37-.51,2.63,2.63,0,0,0,.19-.77,7.79,7.79,0,0,0,.06-1,6.86,6.86,0,0,0-.25-2.23.91.91,0,0,0-.9-.65.94.94,0,0,0-.59.16,1,1,0,0,0-.36.52,3.66,3.66,0,0,0-.16,1c0,.4,0,.89,0,1.46A7.69,7.69,0,0,0,293.06,222.24Z" transform="translate(-116.5 -178.5)" style="fill:#fff"/><path d="M300.76,222.9a1.32,1.32,0,0,0,.3.9,1,1,0,0,0,.85.34,1.25,1.25,0,0,0,.82-.25,1,1,0,0,0,.3-.77.79.79,0,0,0-.24-.63,1.89,1.89,0,0,0-.56-.35l-1.55-.56a2.92,2.92,0,0,1-1.38-.9,2.33,2.33,0,0,1-.46-1.5,2.81,2.81,0,0,1,.18-1,2,2,0,0,1,.56-.82,2.8,2.8,0,0,1,1-.56,4.4,4.4,0,0,1,1.45-.21,3.3,3.3,0,0,1,2.22.64A2.3,2.3,0,0,1,305,219v.35h-2a1.77,1.77,0,0,0-.22-1,.85.85,0,0,0-.76-.31,1.16,1.16,0,0,0-.73.23.81.81,0,0,0-.31.69.93.93,0,0,0,.2.58,1.56,1.56,0,0,0,.76.43l1.33.45a3,3,0,0,1,1.47.92,2.47,2.47,0,0,1,.43,1.54,2.79,2.79,0,0,1-.24,1.2,2.47,2.47,0,0,1-.66.84,2.71,2.71,0,0,1-1,.48,5.73,5.73,0,0,1-1.29.14,5.56,5.56,0,0,1-1.54-.18,2.24,2.24,0,0,1-1-.52,2,2,0,0,1-.5-.86,4,4,0,0,1-.14-1.13v-.3h2Z" transform="translate(-116.5 -178.5)" style="fill:#fff"/><path d="M309.77,218.32v-1.5h1.12v-1a2.61,2.61,0,0,1,.16-1,1.58,1.58,0,0,1,.45-.64,1.83,1.83,0,0,1,.73-.34,4.1,4.1,0,0,1,1-.1c.4,0,.79,0,1.19,0v1.57h-.44a1,1,0,0,0-.65.16.63.63,0,0,0-.2.52v.76h1.29v1.5h-1.29v7.1h-2.2v-7.1Z" transform="translate(-116.5 -178.5)" style="fill:#fff"/><path d="M317.19,222.14a4.56,4.56,0,0,0,.06.75,2.4,2.4,0,0,0,.18.64,1.41,1.41,0,0,0,.34.45.8.8,0,0,0,.51.16.91.91,0,0,0,.82-.4,3,3,0,0,0,.35-1.21h2a3.46,3.46,0,0,1-.8,2.29,3.05,3.05,0,0,1-2.32.78,3.63,3.63,0,0,1-1.87-.4,2.46,2.46,0,0,1-1-1.06,3.8,3.8,0,0,1-.39-1.47c-.05-.54-.08-1.09-.08-1.63a11.08,11.08,0,0,1,.12-1.66,4,4,0,0,1,.48-1.43,2.68,2.68,0,0,1,1-1,3.64,3.64,0,0,1,1.79-.37,3.56,3.56,0,0,1,1.57.31,2.43,2.43,0,0,1,1,.88,3.52,3.52,0,0,1,.48,1.38,11,11,0,0,1,.13,1.8v.5h-4.37Zm2.19-2.87a2.22,2.22,0,0,0-.16-.64,1,1,0,0,0-.34-.4,1,1,0,0,0-.55-.13.92.92,0,0,0-.55.15,1,1,0,0,0-.35.4,1.87,1.87,0,0,0-.18.55,3.15,3.15,0,0,0-.06.61v.33h2.26A7,7,0,0,0,319.38,219.27Z" transform="translate(-116.5 -178.5)" style="fill:#fff"/><path d="M327.25,224.51a2.17,2.17,0,0,1-.82.85,2.39,2.39,0,0,1-1.13.24,2.2,2.2,0,0,1-2-1,6.94,6.94,0,0,1-.64-3.44,7.09,7.09,0,0,1,.64-3.46,2.18,2.18,0,0,1,2-1.07,2.12,2.12,0,0,1,1.07.26,2.5,2.5,0,0,1,.79.77h0V214h2.21v11.42h-2.11v-.91Zm-2.16-1.27a.9.9,0,0,0,.93.71.91.91,0,0,0,1-.71,10.32,10.32,0,0,0,0-4.24.91.91,0,0,0-1-.71.9.9,0,0,0-.93.71,10.32,10.32,0,0,0,0,4.24Z" transform="translate(-116.5 -178.5)" style="fill:#fff"/><path d="M332.92,222.14a6,6,0,0,0,.05.75,2.4,2.4,0,0,0,.19.64,1.38,1.38,0,0,0,.33.45.81.81,0,0,0,.52.16.88.88,0,0,0,.81-.4,2.86,2.86,0,0,0,.35-1.21h2a3.46,3.46,0,0,1-.8,2.29,3.07,3.07,0,0,1-2.32.78,3.61,3.61,0,0,1-1.87-.4,2.55,2.55,0,0,1-1-1.06,4.19,4.19,0,0,1-.39-1.47c0-.54-.07-1.09-.07-1.63a11.08,11.08,0,0,1,.12-1.66,4,4,0,0,1,.48-1.43,2.66,2.66,0,0,1,1-1,3.69,3.69,0,0,1,1.79-.37,3.61,3.61,0,0,1,1.58.31,2.5,2.5,0,0,1,1,.88,3.87,3.87,0,0,1,.48,1.38,12.27,12.27,0,0,1,.13,1.8v.5h-4.37Zm2.19-2.87a2.21,2.21,0,0,0-.17-.64.94.94,0,0,0-.33-.4,1.06,1.06,0,0,0-.56-.13,1,1,0,0,0-.55.15,1,1,0,0,0-.34.4,1.88,1.88,0,0,0-.19.55,4.18,4.18,0,0,0-.05.61v.33h2.25Q335.16,219.65,335.11,219.27Z" transform="translate(-116.5 -178.5)" style="fill:#fff"/><path d="M340.71,216.82V218h0a3.17,3.17,0,0,1,.82-1,1.85,1.85,0,0,1,1.17-.38h.2l.2,0v2.12l-.35,0h-.34a2.32,2.32,0,0,0-.58.08,1.61,1.61,0,0,0-.52.27,1.24,1.24,0,0,0-.39.48,1.61,1.61,0,0,0-.14.73v5.16H338.6v-8.6Z" transform="translate(-116.5 -178.5)" style="fill:#fff"/><path d="M344.07,219.25a3,3,0,0,1,.24-1.26,2.18,2.18,0,0,1,.65-.81,2.51,2.51,0,0,1,1-.45,4.93,4.93,0,0,1,1.17-.14,5.68,5.68,0,0,1,1.6.19,2.19,2.19,0,0,1,.95.55,1.81,1.81,0,0,1,.45.84,4.41,4.41,0,0,1,.12,1.06v4.53a5.57,5.57,0,0,0,.06.94,3.1,3.1,0,0,0,.22.72h-2.12a1.54,1.54,0,0,1-.16-.44c0-.15-.08-.3-.11-.45h0a1.85,1.85,0,0,1-.89.87,3.62,3.62,0,0,1-1.3.2,2.22,2.22,0,0,1-1-.2,1.71,1.71,0,0,1-.64-.55,2.45,2.45,0,0,1-.35-.79,3.85,3.85,0,0,1-.11-.88,3.56,3.56,0,0,1,.13-1,1.89,1.89,0,0,1,.39-.76,2.22,2.22,0,0,1,.67-.52,5.49,5.49,0,0,1,1-.36l1.25-.34a1.38,1.38,0,0,0,.69-.35,1,1,0,0,0,.19-.66,1.18,1.18,0,0,0-.23-.77,1.19,1.19,0,0,0-1.56,0,1.22,1.22,0,0,0-.26.82v.24h-2Zm3.55,2.15a2.71,2.71,0,0,1-.46.15,1.73,1.73,0,0,0-1,.48,1.38,1.38,0,0,0-.29.91,1.72,1.72,0,0,0,.19.85.66.66,0,0,0,.64.35,1.58,1.58,0,0,0,.47-.07,1.33,1.33,0,0,0,.44-.23,1.23,1.23,0,0,0,.32-.42,1.26,1.26,0,0,0,.13-.6v-1.7A1.94,1.94,0,0,1,347.62,221.4Z" transform="translate(-116.5 -178.5)" style="fill:#fff"/><path d="M354.23,214v11.42H352V214Z" transform="translate(-116.5 -178.5)" style="fill:#fff"/><path d="M358.23,214v11.42H356V214Z" transform="translate(-116.5 -178.5)" style="fill:#fff"/><path d="M360.52,226.59a1.09,1.09,0,0,0,.87-.32,1.45,1.45,0,0,0,.31-.85l-2.41-8.6h2.3l1.28,6h0l1.12-6h2.21l-2.08,8a17.31,17.31,0,0,1-.55,1.73,3,3,0,0,1-.63,1,1.73,1.73,0,0,1-.86.47,6.37,6.37,0,0,1-1.27.11h-.9v-1.65A2.84,2.84,0,0,0,360.52,226.59Z" transform="translate(-116.5 -178.5)" style="fill:#fff"/><path d="M373.49,213.87v1.89h-2.2v-1.89Zm0,2.95v8.6h-2.2v-8.6Z" transform="translate(-116.5 -178.5)" style="fill:#fff"/><path d="M377.32,216.82v1h0a2.27,2.27,0,0,1,.91-.93,2.66,2.66,0,0,1,1.28-.3,2.17,2.17,0,0,1,1.63.58,2.63,2.63,0,0,1,.56,1.87v6.38h-2.2v-5.93a1.48,1.48,0,0,0-.23-.94.92.92,0,0,0-.72-.26c-.78,0-1.17.47-1.17,1.42v5.71h-2.2v-8.6Z" transform="translate(-116.5 -178.5)" style="fill:#fff"/><path d="M385,222.9a1.32,1.32,0,0,0,.3.9,1.06,1.06,0,0,0,.85.34,1.22,1.22,0,0,0,.82-.25,1,1,0,0,0,.3-.77.79.79,0,0,0-.24-.63,1.77,1.77,0,0,0-.56-.35l-1.55-.56a2.89,2.89,0,0,1-1.37-.9,2.34,2.34,0,0,1-.47-1.5,2.81,2.81,0,0,1,.18-1,2,2,0,0,1,.56-.82,2.8,2.8,0,0,1,1-.56,4.4,4.4,0,0,1,1.45-.21,3.3,3.3,0,0,1,2.22.64,2.3,2.3,0,0,1,.72,1.81v.35h-2a1.69,1.69,0,0,0-.22-1,.84.84,0,0,0-.76-.31,1.13,1.13,0,0,0-.72.23.79.79,0,0,0-.32.69.93.93,0,0,0,.2.58,1.62,1.62,0,0,0,.76.43l1.33.45a2.89,2.89,0,0,1,1.47.92,2.47,2.47,0,0,1,.44,1.54,2.79,2.79,0,0,1-.24,1.2,2.49,2.49,0,0,1-.67.84,2.71,2.71,0,0,1-1,.48,6.36,6.36,0,0,1-2.83,0,2.2,2.2,0,0,1-1-.52,2,2,0,0,1-.51-.86,4.37,4.37,0,0,1-.14-1.13v-.3h2Z" transform="translate(-116.5 -178.5)" style="fill:#fff"/><path d="M395,224.42a2.1,2.1,0,0,1-.91.91,2.9,2.9,0,0,1-1.28.27,2.22,2.22,0,0,1-1.62-.55,2.51,2.51,0,0,1-.57-1.85v-6.38h2.21v5.93a1.49,1.49,0,0,0,.22.94.92.92,0,0,0,.72.26c.78,0,1.17-.47,1.17-1.42v-5.71h2.21v8.6h-2.11v-1Z" transform="translate(-116.5 -178.5)" style="fill:#fff"/><path d="M400.9,216.82V218h0a3.17,3.17,0,0,1,.82-1,1.85,1.85,0,0,1,1.17-.38h.2l.2,0v2.12l-.35,0h-.34a2.38,2.38,0,0,0-.58.08,1.72,1.72,0,0,0-.52.27,1.33,1.33,0,0,0-.39.48,1.76,1.76,0,0,0-.14.73v5.16h-2.21v-8.6Z" transform="translate(-116.5 -178.5)" style="fill:#fff"/><path d="M406.17,222.14a4.57,4.57,0,0,0,.05.75,2.4,2.4,0,0,0,.19.64,1.25,1.25,0,0,0,.33.45.8.8,0,0,0,.51.16.89.89,0,0,0,.82-.4,2.86,2.86,0,0,0,.35-1.21h2a3.52,3.52,0,0,1-.8,2.29,3.07,3.07,0,0,1-2.32.78,3.67,3.67,0,0,1-1.88-.4,2.52,2.52,0,0,1-1-1.06,4.19,4.19,0,0,1-.39-1.47c0-.54-.07-1.09-.07-1.63a11.08,11.08,0,0,1,.12-1.66,4,4,0,0,1,.48-1.43,2.66,2.66,0,0,1,1-1,3.67,3.67,0,0,1,1.79-.37,3.61,3.61,0,0,1,1.58.31,2.5,2.5,0,0,1,1,.88,3.87,3.87,0,0,1,.48,1.38,12.34,12.34,0,0,1,.12,1.8v.5h-4.36Zm2.19-2.87a2.21,2.21,0,0,0-.17-.64.89.89,0,0,0-.34-.4,1,1,0,0,0-.55-.13.94.94,0,0,0-.55.15,1,1,0,0,0-.34.4,1.88,1.88,0,0,0-.19.55,3.14,3.14,0,0,0-.05.61v.33h2.25Q408.41,219.65,408.36,219.27Z" transform="translate(-116.5 -178.5)" style="fill:#fff"/><path d="M416.23,224.51a2.24,2.24,0,0,1-.82.85,2.42,2.42,0,0,1-1.13.24,2.18,2.18,0,0,1-2-1,6.83,6.83,0,0,1-.64-3.44,7,7,0,0,1,.64-3.46,2.16,2.16,0,0,1,2-1.07,2.08,2.08,0,0,1,1.06.26,2.4,2.4,0,0,1,.79.77h0V214h2.2v11.42h-2.11v-.91Zm-2.17-1.27a1,1,0,0,0,1.89,0,10.32,10.32,0,0,0,0-4.24,1,1,0,0,0-1.89,0,10.81,10.81,0,0,0,0,4.24Z" transform="translate(-116.5 -178.5)" style="fill:#fff"/><path d="M426.69,214.35v2.47H428v1.5h-1.28V223a1.2,1.2,0,0,0,.16.72c.1.15.31.22.63.22h.25l.24,0v1.53c-.24,0-.48,0-.71,0l-.73,0a5,5,0,0,1-1-.09,1,1,0,0,1-.63-.35,1.5,1.5,0,0,1-.29-.69,5.58,5.58,0,0,1-.08-1.09v-4.93h-1.12v-1.5h1.12v-2.47Z" transform="translate(-116.5 -178.5)" style="fill:#fff"/><path d="M428.79,219.17a3.75,3.75,0,0,1,.58-1.42,2.5,2.5,0,0,1,1-.86,3.79,3.79,0,0,1,1.59-.3,4,4,0,0,1,1.65.27,2.24,2.24,0,0,1,1,.85,3.85,3.85,0,0,1,.55,1.43,11.32,11.32,0,0,1,.16,2,9.38,9.38,0,0,1-.18,1.95,3.91,3.91,0,0,1-.57,1.42,2.4,2.4,0,0,1-1,.84,4.18,4.18,0,0,1-1.6.27,4.13,4.13,0,0,1-1.64-.25,2.14,2.14,0,0,1-1-.83,3.73,3.73,0,0,1-.55-1.42,11.49,11.49,0,0,1-.16-2A9.38,9.38,0,0,1,428.79,219.17Zm2.06,3.17a4.21,4.21,0,0,0,.15,1,1.51,1.51,0,0,0,.37.62.88.88,0,0,0,.63.22.93.93,0,0,0,.93-.7,10.48,10.48,0,0,0,0-4.64.93.93,0,0,0-.93-.7.88.88,0,0,0-.63.22,1.51,1.51,0,0,0-.37.62,4.21,4.21,0,0,0-.15,1c0,.38,0,.78,0,1.22S430.83,222,430.85,222.34Z" transform="translate(-116.5 -178.5)" style="fill:#fff"/><path d="M440.72,219.25A3,3,0,0,1,441,218a2.18,2.18,0,0,1,.65-.81,2.58,2.58,0,0,1,1-.45,5,5,0,0,1,1.18-.14,5.78,5.78,0,0,1,1.6.19,2.15,2.15,0,0,1,.94.55,1.74,1.74,0,0,1,.46.84,4.41,4.41,0,0,1,.12,1.06v4.53a7.22,7.22,0,0,0,.05.94,3.1,3.1,0,0,0,.22.72H445a1.55,1.55,0,0,1-.17-.44c0-.15-.07-.3-.1-.45h0a1.83,1.83,0,0,1-.88.87,3.68,3.68,0,0,1-1.31.2,2.18,2.18,0,0,1-1-.2,1.64,1.64,0,0,1-.64-.55,2.7,2.7,0,0,1-.36-.79,3.85,3.85,0,0,1-.11-.88,3.93,3.93,0,0,1,.13-1,2.18,2.18,0,0,1,.39-.76,2.35,2.35,0,0,1,.67-.52,5.92,5.92,0,0,1,1-.36l1.25-.34a1.3,1.3,0,0,0,.68-.35,1,1,0,0,0,.2-.66,1.13,1.13,0,0,0-.24-.77,1,1,0,0,0-.79-.28,1,1,0,0,0-.77.3,1.22,1.22,0,0,0-.25.82v.24h-2Zm3.56,2.15a2.79,2.79,0,0,1-.47.15,1.77,1.77,0,0,0-1,.48,1.38,1.38,0,0,0-.29.91,1.72,1.72,0,0,0,.2.85.65.65,0,0,0,.64.35,1.51,1.51,0,0,0,.46-.07,1.24,1.24,0,0,0,.44-.23,1.28,1.28,0,0,0,.46-1v-1.7A1.94,1.94,0,0,1,444.28,221.4Z" transform="translate(-116.5 -178.5)" style="fill:#fff"/><path d="M451.28,214.35v2.47h1.28v1.5h-1.28V223a1.2,1.2,0,0,0,.16.72c.1.15.31.22.63.22h.25l.24,0v1.53c-.24,0-.48,0-.71,0l-.73,0a5,5,0,0,1-1-.09,1,1,0,0,1-.63-.35,1.5,1.5,0,0,1-.29-.69,5.58,5.58,0,0,1-.08-1.09v-4.93H448v-1.5h1.12v-2.47Z" transform="translate(-116.5 -178.5)" style="fill:#fff"/><path d="M459.78,214v11.42h-2.21V214Z" transform="translate(-116.5 -178.5)" style="fill:#fff"/><path d="M463.38,222.14a4.56,4.56,0,0,0,.06.75,2.08,2.08,0,0,0,.18.64,1.41,1.41,0,0,0,.34.45.76.76,0,0,0,.51.16.88.88,0,0,0,.81-.4,3,3,0,0,0,.36-1.21h2a3.46,3.46,0,0,1-.8,2.29,3.05,3.05,0,0,1-2.32.78,3.63,3.63,0,0,1-1.87-.4,2.46,2.46,0,0,1-1-1.06,4,4,0,0,1-.4-1.47c0-.54-.07-1.09-.07-1.63a11.08,11.08,0,0,1,.12-1.66,4,4,0,0,1,.48-1.43,2.73,2.73,0,0,1,1-1,3.71,3.71,0,0,1,1.8-.37,3.56,3.56,0,0,1,1.57.31,2.43,2.43,0,0,1,1,.88,3.87,3.87,0,0,1,.48,1.38,11,11,0,0,1,.13,1.8v.5h-4.37Zm2.19-2.87a2.21,2.21,0,0,0-.17-.64.94.94,0,0,0-.33-.4,1,1,0,0,0-.55-.13,1,1,0,0,0-.56.15,1.12,1.12,0,0,0-.34.4,1.62,1.62,0,0,0-.18.55,3.15,3.15,0,0,0-.06.61v.33h2.26C465.62,219.81,465.6,219.52,465.57,219.27Z" transform="translate(-116.5 -178.5)" style="fill:#fff"/><path d="M469,219.25a3,3,0,0,1,.24-1.26,2.18,2.18,0,0,1,.65-.81,2.51,2.51,0,0,1,1-.45,5,5,0,0,1,1.18-.14,5.78,5.78,0,0,1,1.6.19,2.15,2.15,0,0,1,.94.55,1.74,1.74,0,0,1,.46.84,4.41,4.41,0,0,1,.12,1.06v4.53a7.22,7.22,0,0,0,.05.94,3.1,3.1,0,0,0,.22.72h-2.11a1.55,1.55,0,0,1-.17-.44c0-.15-.07-.3-.1-.45h0a1.83,1.83,0,0,1-.88.87,3.68,3.68,0,0,1-1.31.2,2.18,2.18,0,0,1-1-.2,1.64,1.64,0,0,1-.64-.55,2.7,2.7,0,0,1-.36-.79,3.85,3.85,0,0,1-.11-.88,3.56,3.56,0,0,1,.13-1,2.18,2.18,0,0,1,.39-.76,2.35,2.35,0,0,1,.67-.52,5.61,5.61,0,0,1,1-.36l1.25-.34a1.3,1.3,0,0,0,.68-.35,1,1,0,0,0,.2-.66,1.13,1.13,0,0,0-.24-.77,1,1,0,0,0-.79-.28,1,1,0,0,0-.77.3,1.22,1.22,0,0,0-.25.82v.24h-2Zm3.56,2.15a2.79,2.79,0,0,1-.47.15,1.73,1.73,0,0,0-1,.48,1.38,1.38,0,0,0-.29.91,1.72,1.72,0,0,0,.2.85.65.65,0,0,0,.64.35,1.51,1.51,0,0,0,.46-.07,1.24,1.24,0,0,0,.44-.23,1.28,1.28,0,0,0,.46-1v-1.7A1.94,1.94,0,0,1,472.6,221.4Z" transform="translate(-116.5 -178.5)" style="fill:#fff"/><path d="M478.53,222.9a1.32,1.32,0,0,0,.3.9,1.06,1.06,0,0,0,.85.34,1.22,1.22,0,0,0,.82-.25,1,1,0,0,0,.3-.77.79.79,0,0,0-.24-.63,1.77,1.77,0,0,0-.56-.35l-1.55-.56a2.84,2.84,0,0,1-1.37-.9,2.34,2.34,0,0,1-.47-1.5,2.81,2.81,0,0,1,.18-1,2.07,2.07,0,0,1,.56-.82,2.8,2.8,0,0,1,1-.56,4.4,4.4,0,0,1,1.45-.21,3.3,3.3,0,0,1,2.22.64,2.3,2.3,0,0,1,.72,1.81v.35h-2a1.69,1.69,0,0,0-.22-1,.84.84,0,0,0-.76-.31,1.13,1.13,0,0,0-.72.23.79.79,0,0,0-.32.69.93.93,0,0,0,.2.58,1.62,1.62,0,0,0,.76.43l1.33.45a2.89,2.89,0,0,1,1.47.92,2.47,2.47,0,0,1,.44,1.54,2.79,2.79,0,0,1-.24,1.2,2.49,2.49,0,0,1-.67.84,2.71,2.71,0,0,1-1,.48,5.7,5.7,0,0,1-1.28.14,5.64,5.64,0,0,1-1.55-.18,2.2,2.2,0,0,1-1-.52,2,2,0,0,1-.51-.86,4.37,4.37,0,0,1-.14-1.13v-.3h2Z" transform="translate(-116.5 -178.5)" style="fill:#fff"/><path d="M486.87,214.35v2.47h1.28v1.5h-1.28V223a1.29,1.29,0,0,0,.15.72c.1.15.31.22.63.22h.26l.24,0v1.53q-.37,0-.72,0l-.72,0a5,5,0,0,1-1-.09A1,1,0,0,1,485,225a1.5,1.5,0,0,1-.29-.69,5.58,5.58,0,0,1-.08-1.09v-4.93h-1.12v-1.5h1.12v-2.47Z" transform="translate(-116.5 -178.5)" style="fill:#fff"/><path d="M494,225.26a2.27,2.27,0,0,1-.95-.71,2.48,2.48,0,0,1-.46-1,5.62,5.62,0,0,1-.12-1.18V222h2.21c0,.23,0,.44,0,.65a2,2,0,0,0,.13.57,1.07,1.07,0,0,0,.28.44,1,1,0,0,0,.5.26v-3.23l-.8-.29a3.2,3.2,0,0,1-1.68-1.19,3.34,3.34,0,0,1-.51-1.88,3.23,3.23,0,0,1,.77-2.3,3.52,3.52,0,0,1,2.22-1V213h1v1.11a4.06,4.06,0,0,1,1.47.36,2.45,2.45,0,0,1,.9.69,2.26,2.26,0,0,1,.46.93,4.06,4.06,0,0,1,.13,1v.22h-2.21a2.91,2.91,0,0,0-.17-1,.89.89,0,0,0-.58-.54v3l1.27.51a6,6,0,0,1,.8.41,2.22,2.22,0,0,1,.62.56,2.44,2.44,0,0,1,.4.79,3.75,3.75,0,0,1,.14,1.13,3.27,3.27,0,0,1-.82,2.5,3.87,3.87,0,0,1-2.41.88V227h-1V225.6A5.32,5.32,0,0,1,494,225.26Zm.83-8.25a1.45,1.45,0,0,0,.78,1.34v-2.56A1.11,1.11,0,0,0,494.84,217Zm2.51,6.47a1.49,1.49,0,0,0,.22-.81,1.79,1.79,0,0,0-.23-1,1.88,1.88,0,0,0-.7-.59V224A1,1,0,0,0,497.35,223.48Z" transform="translate(-116.5 -178.5)" style="fill:#fff"/><path d="M500.47,225.42a6.2,6.2,0,0,1,.15-1.4,4.93,4.93,0,0,1,.46-1.25,6.44,6.44,0,0,1,.79-1.16,12.73,12.73,0,0,1,1.09-1.15l.93-.86a5.15,5.15,0,0,0,.62-.62,3.4,3.4,0,0,0,.36-.58,2.46,2.46,0,0,0,.17-.62c0-.23,0-.48,0-.77,0-.94-.38-1.41-1.12-1.41a1.18,1.18,0,0,0-.69.18,1.09,1.09,0,0,0-.38.48,2.31,2.31,0,0,0-.18.7c0,.27,0,.55,0,.85h-2.2v-.43a3.33,3.33,0,0,1,.84-2.44,3.7,3.7,0,0,1,2.68-.84,3.56,3.56,0,0,1,2.56.8,3,3,0,0,1,.83,2.28,4.64,4.64,0,0,1-.1,1,3.53,3.53,0,0,1-.3.9,3.91,3.91,0,0,1-.55.84,6.31,6.31,0,0,1-.81.84L504.34,222a4.88,4.88,0,0,0-.8.9,2.73,2.73,0,0,0-.37.76h4.27v1.79Z" transform="translate(-116.5 -178.5)" style="fill:#fff"/><path d="M510.64,216.11l-.24,2.58h0a1.8,1.8,0,0,1,.84-.65,3.46,3.46,0,0,1,1.24-.2,2.66,2.66,0,0,1,1.36.31,2.31,2.31,0,0,1,.84.83,3.29,3.29,0,0,1,.44,1.16,6.42,6.42,0,0,1,.13,1.32,8.15,8.15,0,0,1-.16,1.71,3.16,3.16,0,0,1-.57,1.32,2.47,2.47,0,0,1-1.11.83,4.8,4.8,0,0,1-1.79.28,4.42,4.42,0,0,1-1.73-.29,2.33,2.33,0,0,1-1-.76,2.5,2.5,0,0,1-.47-1,4.87,4.87,0,0,1-.12-1v-.31h2.2c0,.19,0,.4,0,.61a2,2,0,0,0,.15.6,1.13,1.13,0,0,0,.34.46.87.87,0,0,0,.59.19,1.12,1.12,0,0,0,1-.55,3.57,3.57,0,0,0,.31-1.66,9.42,9.42,0,0,0-.06-1.17,2.26,2.26,0,0,0-.22-.73.86.86,0,0,0-.41-.39,1.67,1.67,0,0,0-.64-.11,1,1,0,0,0-.76.28,1.37,1.37,0,0,0-.33.76H508.5l.42-6.16h5.9v1.79Z" transform="translate(-116.5 -178.5)" style="fill:#fff"/><path d="M516.23,217.87a6,6,0,0,1,.43-1.93,3.06,3.06,0,0,1,1.06-1.34,3.38,3.38,0,0,1,2-.5,4.32,4.32,0,0,1,1.72.29,2.5,2.5,0,0,1,1.09,1,4.64,4.64,0,0,1,.57,1.71,16.69,16.69,0,0,1,.17,2.55c0,.79,0,1.55-.08,2.27a6.15,6.15,0,0,1-.43,1.93,2.91,2.91,0,0,1-1.07,1.32,3.48,3.48,0,0,1-2,.48,4.72,4.72,0,0,1-1.71-.27,2.21,2.21,0,0,1-1.1-.93,4.84,4.84,0,0,1-.58-1.7,16.88,16.88,0,0,1-.16-2.56C516.15,219.35,516.17,218.6,516.23,217.87Zm2.28,4.52a3.7,3.7,0,0,0,.2,1.07,1,1,0,0,0,.38.54,1.13,1.13,0,0,0,.61.14,1,1,0,0,0,.62-.18,1.2,1.2,0,0,0,.38-.62,5.92,5.92,0,0,0,.19-1.18c0-.49.06-1.1.06-1.82V219.1c0-.71,0-1.29-.06-1.75a4.16,4.16,0,0,0-.2-1.07,1,1,0,0,0-.38-.54,1.25,1.25,0,0,0-.61-.14,1,1,0,0,0-.63.18,1.23,1.23,0,0,0-.37.63,5.08,5.08,0,0,0-.19,1.17q-.06.73-.06,1.83v1.23C518.45,221.35,518.47,221.94,518.51,222.39Z" transform="translate(-116.5 -178.5)" style="fill:#fff"/><path d="M526.67,225a8.23,8.23,0,0,1-.08,1.13,2.58,2.58,0,0,1-.33.92,1.81,1.81,0,0,1-.65.64,2.5,2.5,0,0,1-1.05.32V226.9a.92.92,0,0,0,.63-.45,1.74,1.74,0,0,0,.2-.82v-.21h-.83v-2.49h2.11Z" transform="translate(-116.5 -178.5)" style="fill:#fff"/><path d="M528.07,217.87a6,6,0,0,1,.43-1.93,3.06,3.06,0,0,1,1.06-1.34,3.35,3.35,0,0,1,2-.5,4.32,4.32,0,0,1,1.72.29,2.5,2.5,0,0,1,1.09,1,4.64,4.64,0,0,1,.57,1.71,16.69,16.69,0,0,1,.17,2.55c0,.79,0,1.55-.08,2.27a6.15,6.15,0,0,1-.43,1.93,2.91,2.91,0,0,1-1.07,1.32,3.48,3.48,0,0,1-2,.48,4.64,4.64,0,0,1-1.71-.27,2.21,2.21,0,0,1-1.1-.93,4.84,4.84,0,0,1-.58-1.7,16.88,16.88,0,0,1-.16-2.56C528,219.35,528,218.6,528.07,217.87Zm2.28,4.52a4.13,4.13,0,0,0,.19,1.07,1,1,0,0,0,.39.54,1.13,1.13,0,0,0,.61.14,1,1,0,0,0,.62-.18,1.2,1.2,0,0,0,.38-.62,5.92,5.92,0,0,0,.19-1.18c0-.49.06-1.1.06-1.82V219.1c0-.71,0-1.29-.06-1.75a4.64,4.64,0,0,0-.2-1.07,1,1,0,0,0-.38-.54,1.25,1.25,0,0,0-.61-.14,1,1,0,0,0-.63.18,1.23,1.23,0,0,0-.37.63,5.08,5.08,0,0,0-.19,1.17q-.06.73-.06,1.83v1.23C530.29,221.35,530.31,221.94,530.35,222.39Z" transform="translate(-116.5 -178.5)" style="fill:#fff"/><path d="M535.91,217.87a6,6,0,0,1,.43-1.93,3.06,3.06,0,0,1,1.06-1.34,3.35,3.35,0,0,1,2-.5,4.32,4.32,0,0,1,1.72.29,2.5,2.5,0,0,1,1.09,1,4.64,4.64,0,0,1,.57,1.71,16.69,16.69,0,0,1,.17,2.55c0,.79,0,1.55-.08,2.27a6.15,6.15,0,0,1-.43,1.93,2.91,2.91,0,0,1-1.07,1.32,3.48,3.48,0,0,1-2,.48,4.64,4.64,0,0,1-1.71-.27,2.21,2.21,0,0,1-1.1-.93,4.84,4.84,0,0,1-.58-1.7,16.88,16.88,0,0,1-.16-2.56C535.83,219.35,535.85,218.6,535.91,217.87Zm2.28,4.52a4.13,4.13,0,0,0,.19,1.07,1,1,0,0,0,.39.54,1.13,1.13,0,0,0,.61.14A1,1,0,0,0,540,224a1.2,1.2,0,0,0,.38-.62,5.92,5.92,0,0,0,.19-1.18c0-.49,0-1.1,0-1.82V219.1c0-.71,0-1.29,0-1.75a4.64,4.64,0,0,0-.2-1.07,1,1,0,0,0-.38-.54,1.25,1.25,0,0,0-.61-.14,1,1,0,0,0-.63.18,1.23,1.23,0,0,0-.37.63,5.08,5.08,0,0,0-.19,1.17q-.06.73-.06,1.83v1.23C538.13,221.35,538.15,221.94,538.19,222.39Z" transform="translate(-116.5 -178.5)" style="fill:#fff"/><path d="M543.75,217.87a6,6,0,0,1,.43-1.93,3.06,3.06,0,0,1,1.06-1.34,3.35,3.35,0,0,1,2-.5,4.32,4.32,0,0,1,1.72.29,2.5,2.5,0,0,1,1.09,1,4.64,4.64,0,0,1,.57,1.71,16.69,16.69,0,0,1,.17,2.55c0,.79,0,1.55-.08,2.27a6.15,6.15,0,0,1-.43,1.93,2.91,2.91,0,0,1-1.07,1.32,3.48,3.48,0,0,1-2,.48,4.74,4.74,0,0,1-1.72-.27,2.23,2.23,0,0,1-1.09-.93,4.84,4.84,0,0,1-.58-1.7,16.88,16.88,0,0,1-.16-2.56C543.67,219.35,543.69,218.6,543.75,217.87Zm2.28,4.52a4.13,4.13,0,0,0,.19,1.07,1,1,0,0,0,.39.54,1.13,1.13,0,0,0,.61.14,1,1,0,0,0,.62-.18,1.2,1.2,0,0,0,.38-.62,5.92,5.92,0,0,0,.19-1.18c0-.49.05-1.1.05-1.82V219.1c0-.71,0-1.29-.05-1.75a4.64,4.64,0,0,0-.2-1.07,1,1,0,0,0-.38-.54,1.25,1.25,0,0,0-.61-.14,1,1,0,0,0-.63.18,1.23,1.23,0,0,0-.37.63,5.08,5.08,0,0,0-.19,1.17q-.06.73-.06,1.83v1.23C546,221.35,546,221.94,546,222.39Z" transform="translate(-116.5 -178.5)" style="fill:#fff"/><path d="M156.52,237.25a3,3,0,0,1,.24-1.26,2.18,2.18,0,0,1,.65-.81,2.51,2.51,0,0,1,1-.45,5,5,0,0,1,1.18-.14,5.78,5.78,0,0,1,1.6.19,2.15,2.15,0,0,1,.94.55,1.82,1.82,0,0,1,.46.84,4.41,4.41,0,0,1,.12,1.06v4.53a5.78,5.78,0,0,0,.05.94,3.1,3.1,0,0,0,.22.72h-2.11a1.3,1.3,0,0,1-.17-.44c0-.15-.07-.3-.11-.45h0a1.81,1.81,0,0,1-.89.87,3.62,3.62,0,0,1-1.3.2,2.25,2.25,0,0,1-1-.2,1.71,1.71,0,0,1-.64-.55,2.68,2.68,0,0,1-.35-.79,3.85,3.85,0,0,1-.11-.88,3.56,3.56,0,0,1,.13-1,1.89,1.89,0,0,1,.39-.76,2.35,2.35,0,0,1,.67-.52,5.33,5.33,0,0,1,1-.36l1.24-.34a1.38,1.38,0,0,0,.69-.35,1,1,0,0,0,.19-.66,1.13,1.13,0,0,0-.23-.77,1.19,1.19,0,0,0-1.56,0,1.22,1.22,0,0,0-.25.82v.24h-2Zm3.55,2.15a2.71,2.71,0,0,1-.46.15,1.73,1.73,0,0,0-1,.48,1.38,1.38,0,0,0-.29.91,1.84,1.84,0,0,0,.19.85.66.66,0,0,0,.64.35,1.58,1.58,0,0,0,.47-.07,1.33,1.33,0,0,0,.44-.23,1.23,1.23,0,0,0,.45-1v-1.7A1.94,1.94,0,0,1,160.07,239.4Z" transform="translate(-116.5 -178.5)" style="fill:#fff"/><path d="M166.51,234.82v1h0a2.27,2.27,0,0,1,.91-.93,2.66,2.66,0,0,1,1.28-.3,2.14,2.14,0,0,1,1.62.58,2.58,2.58,0,0,1,.57,1.87v6.38h-2.21v-5.93a1.49,1.49,0,0,0-.22-.94.92.92,0,0,0-.72-.26c-.78,0-1.17.47-1.17,1.42v5.71h-2.21v-8.6Z" transform="translate(-116.5 -178.5)" style="fill:#fff"/><path d="M176.94,242.51a2.19,2.19,0,0,1-.83.85,2.38,2.38,0,0,1-1.12.24,2.18,2.18,0,0,1-2-1,6.83,6.83,0,0,1-.64-3.44,7,7,0,0,1,.64-3.46,2.16,2.16,0,0,1,2-1.07,2.08,2.08,0,0,1,1.06.26,2.4,2.4,0,0,1,.79.77h0V232h2.21v11.42H177v-.91Zm-2.17-1.27a.91.91,0,0,0,.94.71.92.92,0,0,0,.95-.71,10.81,10.81,0,0,0,0-4.24.92.92,0,0,0-.95-.71.91.91,0,0,0-.94.71,10.32,10.32,0,0,0,0,4.24Z" transform="translate(-116.5 -178.5)" style="fill:#fff"/><path d="M186.92,232v3.62h0a2.42,2.42,0,0,1,.8-.77,2.06,2.06,0,0,1,1.06-.26,2.17,2.17,0,0,1,2,1.07,7,7,0,0,1,.64,3.46,6.83,6.83,0,0,1-.64,3.44,2.19,2.19,0,0,1-2,1,2.42,2.42,0,0,1-1.13-.24,2.17,2.17,0,0,1-.82-.85h0v.91h-2.12V232Zm.22,9.24a1,1,0,0,0,1.89,0,10.81,10.81,0,0,0,0-4.24,1,1,0,0,0-1.89,0,10.32,10.32,0,0,0,0,4.24Z" transform="translate(-116.5 -178.5)" style="fill:#fff"/><path d="M192.86,237.25a3,3,0,0,1,.24-1.26,2.09,2.09,0,0,1,.65-.81,2.51,2.51,0,0,1,1-.45,4.87,4.87,0,0,1,1.17-.14,5.73,5.73,0,0,1,1.6.19,2.19,2.19,0,0,1,1,.55,1.81,1.81,0,0,1,.45.84,4.41,4.41,0,0,1,.12,1.06v4.53a5.57,5.57,0,0,0,.06.94,3.05,3.05,0,0,0,.21.72h-2.11A1.92,1.92,0,0,1,197,243c0-.15-.07-.3-.1-.45h0a1.85,1.85,0,0,1-.89.87,3.66,3.66,0,0,1-1.3.2,2.22,2.22,0,0,1-1-.2,1.64,1.64,0,0,1-.64-.55,2.45,2.45,0,0,1-.35-.79,3.37,3.37,0,0,1-.11-.88,4,4,0,0,1,.12-1,2.18,2.18,0,0,1,.39-.76,2.4,2.4,0,0,1,.68-.52,5.49,5.49,0,0,1,1-.36l1.25-.34a1.38,1.38,0,0,0,.69-.35,1,1,0,0,0,.19-.66,1.18,1.18,0,0,0-.23-.77,1,1,0,0,0-.79-.28,1,1,0,0,0-.77.3,1.22,1.22,0,0,0-.26.82v.24h-2Zm3.55,2.15a3,3,0,0,1-.46.15,1.73,1.73,0,0,0-1,.48,1.33,1.33,0,0,0-.29.91,1.72,1.72,0,0,0,.19.85.66.66,0,0,0,.64.35,1.51,1.51,0,0,0,.46-.07,1.24,1.24,0,0,0,.44-.23,1.14,1.14,0,0,0,.33-.42,1.26,1.26,0,0,0,.13-.6v-1.7A1.94,1.94,0,0,1,196.41,239.4Z" transform="translate(-116.5 -178.5)" style="fill:#fff"/><path d="M204.83,237.3a1.92,1.92,0,0,0-.14-.56,1.08,1.08,0,0,0-.3-.4.79.79,0,0,0-.51-.15,1,1,0,0,0-.65.19,1.06,1.06,0,0,0-.39.54,3.89,3.89,0,0,0-.17.91,12.57,12.57,0,0,0,0,1.31,13.37,13.37,0,0,0,0,1.36,4.18,4.18,0,0,0,.17.94,1.17,1.17,0,0,0,.36.54,1,1,0,0,0,.6.16.87.87,0,0,0,.82-.48,3.44,3.44,0,0,0,.25-1.53H207a3.89,3.89,0,0,1-.76,2.58,3.17,3.17,0,0,1-2.52.89,4.79,4.79,0,0,1-1.45-.2,2.11,2.11,0,0,1-1-.72,3.65,3.65,0,0,1-.61-1.39,9.48,9.48,0,0,1-.21-2.17,7.57,7.57,0,0,1,.26-2.2,3.51,3.51,0,0,1,.72-1.39,2.4,2.4,0,0,1,1.1-.73,4.53,4.53,0,0,1,1.41-.21,2.89,2.89,0,0,1,2.31.9,3.58,3.58,0,0,1,.78,2.43h-2.12A4.21,4.21,0,0,0,204.83,237.3Z" transform="translate(-116.5 -178.5)" style="fill:#fff"/><path d="M210.59,238h0l2.22-3.21h2.43l-2.48,3.39,2.85,5.21h-2.43l-1.84-3.53-.78,1v2.51h-2.21V232h2.21Z" transform="translate(-116.5 -178.5)" style="fill:#fff"/><path d="M218.35,240.14a4.57,4.57,0,0,0,.05.75,2.4,2.4,0,0,0,.19.64,1.25,1.25,0,0,0,.33.45.8.8,0,0,0,.51.16.89.89,0,0,0,.82-.4,2.86,2.86,0,0,0,.35-1.21h2a3.52,3.52,0,0,1-.8,2.29,3.08,3.08,0,0,1-2.32.78,3.67,3.67,0,0,1-1.88-.4,2.46,2.46,0,0,1-1-1.06,4.19,4.19,0,0,1-.39-1.47c-.05-.54-.07-1.09-.07-1.63a11.08,11.08,0,0,1,.12-1.66,4,4,0,0,1,.48-1.43,2.66,2.66,0,0,1,1-1,3.67,3.67,0,0,1,1.79-.37,3.61,3.61,0,0,1,1.58.31,2.4,2.4,0,0,1,1,.88,3.69,3.69,0,0,1,.49,1.38,12.34,12.34,0,0,1,.12,1.8v.5h-4.36Zm2.19-2.87a2.21,2.21,0,0,0-.17-.64.89.89,0,0,0-.34-.4,1,1,0,0,0-.55-.13.94.94,0,0,0-.55.15,1,1,0,0,0-.34.4,1.88,1.88,0,0,0-.19.55,3.14,3.14,0,0,0-.05.61v.33h2.25Q220.59,237.65,220.54,237.27Z" transform="translate(-116.5 -178.5)" style="fill:#fff"/><path d="M228.41,242.51a2.24,2.24,0,0,1-.82.85,2.42,2.42,0,0,1-1.13.24,2.18,2.18,0,0,1-2-1,6.83,6.83,0,0,1-.64-3.44,7,7,0,0,1,.64-3.46,2.16,2.16,0,0,1,2-1.07,2.08,2.08,0,0,1,1.06.26,2.4,2.4,0,0,1,.79.77h0V232h2.2v11.42h-2.11v-.91Zm-2.17-1.27a1,1,0,0,0,1.89,0,10.32,10.32,0,0,0,0-4.24,1,1,0,0,0-1.89,0,10.81,10.81,0,0,0,0,4.24Z" transform="translate(-116.5 -178.5)" style="fill:#fff"/><path d="M238.39,232v3.62h0a2.31,2.31,0,0,1,.79-.77,2.08,2.08,0,0,1,1.06-.26,2.17,2.17,0,0,1,2,1.07,7,7,0,0,1,.64,3.46,6.83,6.83,0,0,1-.64,3.44,2.19,2.19,0,0,1-2,1,2.42,2.42,0,0,1-1.13-.24,2.17,2.17,0,0,1-.82-.85h0v.91h-2.11V232Zm.22,9.24a1,1,0,0,0,1.89,0,10.81,10.81,0,0,0,0-4.24,1,1,0,0,0-1.89,0,10.32,10.32,0,0,0,0,4.24Z" transform="translate(-116.5 -178.5)" style="fill:#fff"/><path d="M244.92,244.59a1.06,1.06,0,0,0,.87-.32,1.52,1.52,0,0,0,.32-.85l-2.42-8.6H246l1.28,6h0l1.12-6h2.2l-2.08,8a15,15,0,0,1-.55,1.73,2.87,2.87,0,0,1-.62,1,1.77,1.77,0,0,1-.87.47,6.3,6.3,0,0,1-1.27.11h-.89v-1.65A2.75,2.75,0,0,0,244.92,244.59Z" transform="translate(-116.5 -178.5)" style="fill:#fff"/><path d="M258.3,232.35v2.47h1.28v1.5H258.3V241a1.29,1.29,0,0,0,.15.72c.1.15.31.22.63.22h.26l.24,0v1.53c-.25,0-.49,0-.71,0l-.73,0a5,5,0,0,1-1.05-.09,1,1,0,0,1-.63-.35,1.5,1.5,0,0,1-.29-.69,6.49,6.49,0,0,1-.08-1.09v-4.93H255v-1.5h1.12v-2.47Z" transform="translate(-116.5 -178.5)" style="fill:#fff"/><path d="M262.71,232v3.7h0a2.24,2.24,0,0,1,2.1-1.11,2.14,2.14,0,0,1,1.62.58A2.58,2.58,0,0,1,267,237v6.38h-2.21v-5.93a1.49,1.49,0,0,0-.22-.94.92.92,0,0,0-.72-.26c-.78,0-1.17.47-1.17,1.42v5.71H260.5V232Z" transform="translate(-116.5 -178.5)" style="fill:#fff"/><path d="M270.55,240.14a4.56,4.56,0,0,0,.06.75,2.84,2.84,0,0,0,.18.64,1.41,1.41,0,0,0,.34.45.8.8,0,0,0,.51.16.9.9,0,0,0,.82-.4,3,3,0,0,0,.35-1.21h2a3.46,3.46,0,0,1-.8,2.29,3.05,3.05,0,0,1-2.32.78,3.63,3.63,0,0,1-1.87-.4,2.46,2.46,0,0,1-1-1.06,4,4,0,0,1-.39-1.47c-.05-.54-.08-1.09-.08-1.63a11.08,11.08,0,0,1,.12-1.66,4,4,0,0,1,.48-1.43,2.68,2.68,0,0,1,1-1,3.64,3.64,0,0,1,1.79-.37,3.56,3.56,0,0,1,1.57.31,2.37,2.37,0,0,1,1,.88,3.52,3.52,0,0,1,.48,1.38,11,11,0,0,1,.13,1.8v.5h-4.37Zm2.19-2.87a2.22,2.22,0,0,0-.16-.64,1,1,0,0,0-.34-.4,1,1,0,0,0-.55-.13.92.92,0,0,0-.55.15,1,1,0,0,0-.35.4,2.22,2.22,0,0,0-.18.55,3.15,3.15,0,0,0-.06.61v.33h2.26A7,7,0,0,0,272.74,237.27Z" transform="translate(-116.5 -178.5)" style="fill:#fff"/><path d="M279.59,236.32v-1.5h1.12v-1a2.83,2.83,0,0,1,.16-1,1.6,1.6,0,0,1,.46-.64,1.83,1.83,0,0,1,.73-.34,4,4,0,0,1,1-.1c.39,0,.79,0,1.18,0v1.57h-.43a1,1,0,0,0-.66.16.62.62,0,0,0-.19.52v.76h1.28v1.5h-1.28v7.1h-2.21v-7.1Z" transform="translate(-116.5 -178.5)" style="fill:#fff"/><path d="M289.51,242.42a2.1,2.1,0,0,1-.91.91,2.9,2.9,0,0,1-1.28.27,2.21,2.21,0,0,1-1.62-.55,2.51,2.51,0,0,1-.57-1.85v-6.38h2.21v5.93a1.49,1.49,0,0,0,.22.94.92.92,0,0,0,.72.26c.78,0,1.17-.47,1.17-1.42v-5.71h2.21v8.6h-2.12v-1Z" transform="translate(-116.5 -178.5)" style="fill:#fff"/><path d="M295.58,232v11.42h-2.21V232Z" transform="translate(-116.5 -178.5)" style="fill:#fff"/><path d="M299.58,232v11.42h-2.21V232Z" transform="translate(-116.5 -178.5)" style="fill:#fff"/><path d="M304.65,236.32v-1.5h1.12v-1a2.61,2.61,0,0,1,.16-1,1.58,1.58,0,0,1,.45-.64,1.83,1.83,0,0,1,.73-.34,4.1,4.1,0,0,1,1-.1c.4,0,.79,0,1.19,0v1.57h-.44a1,1,0,0,0-.65.16.62.62,0,0,0-.19.52v.76h1.28v1.5H308v7.1h-2.21v-7.1Z" transform="translate(-116.5 -178.5)" style="fill:#fff"/><path d="M310.17,237.25a3,3,0,0,1,.24-1.26,2.09,2.09,0,0,1,.65-.81,2.51,2.51,0,0,1,1-.45,4.87,4.87,0,0,1,1.17-.14,5.73,5.73,0,0,1,1.6.19,2.19,2.19,0,0,1,.95.55,1.81,1.81,0,0,1,.45.84,4.41,4.41,0,0,1,.12,1.06v4.53a5.57,5.57,0,0,0,.06.94,3.05,3.05,0,0,0,.21.72h-2.11a1.92,1.92,0,0,1-.17-.44c0-.15-.07-.3-.1-.45h0a1.85,1.85,0,0,1-.89.87,3.66,3.66,0,0,1-1.3.2,2.22,2.22,0,0,1-1-.2,1.64,1.64,0,0,1-.64-.55,2.45,2.45,0,0,1-.35-.79,3.37,3.37,0,0,1-.11-.88,4,4,0,0,1,.12-1,2,2,0,0,1,.4-.76,2.22,2.22,0,0,1,.67-.52,5.49,5.49,0,0,1,1-.36l1.25-.34a1.38,1.38,0,0,0,.69-.35,1,1,0,0,0,.19-.66,1.18,1.18,0,0,0-.23-.77,1,1,0,0,0-.79-.28,1,1,0,0,0-.77.3,1.22,1.22,0,0,0-.26.82v.24h-2Zm3.55,2.15a3,3,0,0,1-.46.15,1.73,1.73,0,0,0-1,.48,1.33,1.33,0,0,0-.29.91,1.72,1.72,0,0,0,.19.85.66.66,0,0,0,.64.35,1.51,1.51,0,0,0,.46-.07,1.24,1.24,0,0,0,.44-.23,1.14,1.14,0,0,0,.33-.42,1.26,1.26,0,0,0,.13-.6v-1.7A1.94,1.94,0,0,1,313.72,239.4Z" transform="translate(-116.5 -178.5)" style="fill:#fff"/><path d="M320.33,231.87v1.89h-2.21v-1.89Zm0,2.95v8.6h-2.21v-8.6Z" transform="translate(-116.5 -178.5)" style="fill:#fff"/><path d="M324.73,232.35v2.47H326v1.5h-1.28V241a1.29,1.29,0,0,0,.15.72c.1.15.31.22.63.22h.26l.24,0v1.53c-.25,0-.49,0-.71,0l-.73,0a5,5,0,0,1-1.05-.09,1,1,0,0,1-.63-.35,1.5,1.5,0,0,1-.29-.69,6.49,6.49,0,0,1-.08-1.09v-4.93H321.4v-1.5h1.12v-2.47Z" transform="translate(-116.5 -178.5)" style="fill:#fff"/><path d="M329.14,232v3.7h0a2.24,2.24,0,0,1,2.1-1.11,2.14,2.14,0,0,1,1.62.58,2.58,2.58,0,0,1,.57,1.87v6.38h-2.21v-5.93a1.49,1.49,0,0,0-.22-.94.92.92,0,0,0-.72-.26c-.78,0-1.17.47-1.17,1.42v5.71h-2.21V232Z" transform="translate(-116.5 -178.5)" style="fill:#fff"/><path d="M339.08,237.25a3,3,0,0,1,.24-1.26,2.09,2.09,0,0,1,.65-.81,2.51,2.51,0,0,1,1-.45,4.87,4.87,0,0,1,1.17-.14,5.73,5.73,0,0,1,1.6.19,2.19,2.19,0,0,1,.95.55,1.81,1.81,0,0,1,.45.84,4.41,4.41,0,0,1,.12,1.06v4.53a5.57,5.57,0,0,0,.06.94,3.1,3.1,0,0,0,.22.72h-2.12a1.92,1.92,0,0,1-.17-.44c0-.15-.07-.3-.1-.45h0a1.85,1.85,0,0,1-.89.87,3.66,3.66,0,0,1-1.3.2,2.22,2.22,0,0,1-1-.2,1.64,1.64,0,0,1-.64-.55,2.45,2.45,0,0,1-.35-.79,3.37,3.37,0,0,1-.11-.88,3.56,3.56,0,0,1,.13-1,1.89,1.89,0,0,1,.39-.76,2.22,2.22,0,0,1,.67-.52,5.49,5.49,0,0,1,1-.36l1.25-.34a1.38,1.38,0,0,0,.69-.35,1,1,0,0,0,.19-.66,1.18,1.18,0,0,0-.23-.77,1,1,0,0,0-.79-.28,1,1,0,0,0-.77.3,1.22,1.22,0,0,0-.26.82v.24h-2Zm3.55,2.15a2.71,2.71,0,0,1-.46.15,1.73,1.73,0,0,0-1,.48,1.33,1.33,0,0,0-.29.91,1.72,1.72,0,0,0,.19.85.66.66,0,0,0,.64.35,1.51,1.51,0,0,0,.46-.07,1.16,1.16,0,0,0,.44-.23,1.14,1.14,0,0,0,.33-.42,1.26,1.26,0,0,0,.13-.6v-1.7A1.94,1.94,0,0,1,342.63,239.4Z" transform="translate(-116.5 -178.5)" style="fill:#fff"/><path d="M349.06,234.82v1h0a2.29,2.29,0,0,1,.92-.93,2.66,2.66,0,0,1,1.28-.3,2.16,2.16,0,0,1,1.62.58,2.58,2.58,0,0,1,.57,1.87v6.38h-2.21v-5.93a1.49,1.49,0,0,0-.22-.94.92.92,0,0,0-.72-.26c-.78,0-1.17.47-1.17,1.42v5.71H347v-8.6Z" transform="translate(-116.5 -178.5)" style="fill:#fff"/><path d="M359.49,242.51a2.17,2.17,0,0,1-.82.85,2.39,2.39,0,0,1-1.13.24,2.2,2.2,0,0,1-2-1,6.94,6.94,0,0,1-.64-3.44,7.09,7.09,0,0,1,.64-3.46,2.18,2.18,0,0,1,2-1.07,2.12,2.12,0,0,1,1.07.26,2.5,2.5,0,0,1,.79.77h0V232h2.21v11.42h-2.11v-.91Zm-2.16-1.27a.9.9,0,0,0,.93.71.91.91,0,0,0,.95-.71,10.32,10.32,0,0,0,0-4.24.91.91,0,0,0-.95-.71.9.9,0,0,0-.93.71,10.32,10.32,0,0,0,0,4.24Z" transform="translate(-116.5 -178.5)" style="fill:#fff"/><path d="M371.37,237.3a1.92,1.92,0,0,0-.14-.56,1.08,1.08,0,0,0-.3-.4.78.78,0,0,0-.51-.15,1,1,0,0,0-.65.19,1.12,1.12,0,0,0-.39.54,3.89,3.89,0,0,0-.17.91,12.57,12.57,0,0,0,0,1.31,13.37,13.37,0,0,0,0,1.36,4.18,4.18,0,0,0,.17.94,1.17,1.17,0,0,0,.36.54,1,1,0,0,0,.6.16.86.86,0,0,0,.82-.48,3.44,3.44,0,0,0,.25-1.53h2.12a3.89,3.89,0,0,1-.76,2.58,3.17,3.17,0,0,1-2.52.89,4.79,4.79,0,0,1-1.45-.2,2.11,2.11,0,0,1-1-.72,3.65,3.65,0,0,1-.61-1.39,9.48,9.48,0,0,1-.21-2.17,7.94,7.94,0,0,1,.26-2.2,3.51,3.51,0,0,1,.72-1.39,2.45,2.45,0,0,1,1.1-.73,4.53,4.53,0,0,1,1.41-.21,2.89,2.89,0,0,1,2.31.9,3.58,3.58,0,0,1,.78,2.43h-2.12A4.21,4.21,0,0,0,371.37,237.3Z" transform="translate(-116.5 -178.5)" style="fill:#fff"/><path d="M377,234.82V236h0a3.17,3.17,0,0,1,.82-1,1.85,1.85,0,0,1,1.17-.38h.2l.2,0v2.12l-.35,0h-.34a2.32,2.32,0,0,0-.58.08,1.77,1.77,0,0,0-.53.27,1.31,1.31,0,0,0-.38.48,1.61,1.61,0,0,0-.14.73v5.16h-2.21v-8.6Z" transform="translate(-116.5 -178.5)" style="fill:#fff"/><path d="M382.21,240.14a4.56,4.56,0,0,0,.06.75,2.84,2.84,0,0,0,.18.64,1.41,1.41,0,0,0,.34.45.8.8,0,0,0,.51.16.89.89,0,0,0,.82-.4,2.86,2.86,0,0,0,.35-1.21h2a3.46,3.46,0,0,1-.8,2.29,3.05,3.05,0,0,1-2.32.78,3.63,3.63,0,0,1-1.87-.4,2.46,2.46,0,0,1-1-1.06,4.19,4.19,0,0,1-.39-1.47c-.05-.54-.07-1.09-.07-1.63a11.08,11.08,0,0,1,.12-1.66,4,4,0,0,1,.48-1.43,2.66,2.66,0,0,1,1-1,3.67,3.67,0,0,1,1.79-.37,3.61,3.61,0,0,1,1.58.31,2.4,2.4,0,0,1,1,.88,3.52,3.52,0,0,1,.48,1.38,11,11,0,0,1,.13,1.8v.5h-4.37Zm2.2-2.87a2.58,2.58,0,0,0-.17-.64.89.89,0,0,0-.34-.4,1,1,0,0,0-.55-.13.94.94,0,0,0-.55.15,1,1,0,0,0-.35.4,2.22,2.22,0,0,0-.18.55,3.15,3.15,0,0,0-.06.61v.33h2.26Q384.45,237.65,384.41,237.27Z" transform="translate(-116.5 -178.5)" style="fill:#fff"/><path d="M392.28,242.51a2.19,2.19,0,0,1-.83.85,2.38,2.38,0,0,1-1.12.24,2.18,2.18,0,0,1-2-1,6.83,6.83,0,0,1-.64-3.44,7,7,0,0,1,.64-3.46,2.16,2.16,0,0,1,2-1.07,2.08,2.08,0,0,1,1.06.26,2.4,2.4,0,0,1,.79.77h0V232h2.21v11.42h-2.11v-.91Zm-2.17-1.27a.91.91,0,0,0,.94.71.92.92,0,0,0,.95-.71,10.81,10.81,0,0,0,0-4.24.92.92,0,0,0-.95-.71.91.91,0,0,0-.94.71,10.32,10.32,0,0,0,0,4.24Z" transform="translate(-116.5 -178.5)" style="fill:#fff"/><path d="M398.34,231.87v1.89h-2.21v-1.89Zm0,2.95v8.6h-2.21v-8.6Z" transform="translate(-116.5 -178.5)" style="fill:#fff"/><path d="M402.74,232.35v2.47H404v1.5h-1.28V241a1.29,1.29,0,0,0,.15.72.75.75,0,0,0,.64.22h.25l.24,0v1.53c-.24,0-.48,0-.71,0l-.73,0a5.13,5.13,0,0,1-1.05-.09,1,1,0,0,1-.62-.35,1.62,1.62,0,0,1-.3-.69,6.49,6.49,0,0,1-.08-1.09v-4.93h-1.12v-1.5h1.12v-2.47Z" transform="translate(-116.5 -178.5)" style="fill:#fff"/><path d="M408.84,237.17a3.91,3.91,0,0,1,.57-1.42,2.6,2.6,0,0,1,1-.86,3.76,3.76,0,0,1,1.59-.3,4,4,0,0,1,1.65.27,2.24,2.24,0,0,1,1,.85,3.85,3.85,0,0,1,.55,1.43,11.32,11.32,0,0,1,.16,2,9.38,9.38,0,0,1-.18,1.95,3.75,3.75,0,0,1-.58,1.42,2.32,2.32,0,0,1-1,.84,4.21,4.21,0,0,1-1.6.27,4.13,4.13,0,0,1-1.64-.25,2.14,2.14,0,0,1-1-.83,3.73,3.73,0,0,1-.55-1.42,10.58,10.58,0,0,1-.16-2A9.38,9.38,0,0,1,408.84,237.17Zm2.06,3.17a4.21,4.21,0,0,0,.15,1,1.4,1.4,0,0,0,.36.62.91.91,0,0,0,.64.22.93.93,0,0,0,.93-.7,10.48,10.48,0,0,0,0-4.64.93.93,0,0,0-.93-.7.91.91,0,0,0-.64.22,1.4,1.4,0,0,0-.36.62,4.21,4.21,0,0,0-.15,1c0,.38,0,.78,0,1.22S410.88,240,410.9,240.34Z" transform="translate(-116.5 -178.5)" style="fill:#fff"/><path d="M416.15,236.32v-1.5h1.12v-1a2.61,2.61,0,0,1,.16-1,1.68,1.68,0,0,1,.45-.64,1.89,1.89,0,0,1,.73-.34,4.1,4.1,0,0,1,1-.1c.4,0,.79,0,1.19,0v1.57h-.43a1,1,0,0,0-.66.16.62.62,0,0,0-.19.52v.76h1.28v1.5h-1.28v7.1h-2.21v-7.1Z" transform="translate(-116.5 -178.5)" style="fill:#fff"/><path d="M428.37,232.35v2.47h1.28v1.5h-1.28V241a1.2,1.2,0,0,0,.16.72c.1.15.31.22.63.22h.25l.24,0v1.53c-.24,0-.48,0-.71,0l-.73,0a5,5,0,0,1-1-.09,1,1,0,0,1-.63-.35,1.5,1.5,0,0,1-.29-.69,5.58,5.58,0,0,1-.08-1.09v-4.93H425v-1.5h1.13v-2.47Z" transform="translate(-116.5 -178.5)" style="fill:#fff"/><path d="M432.79,232v3.7h0a2.24,2.24,0,0,1,2.1-1.11,2.16,2.16,0,0,1,1.62.58,2.58,2.58,0,0,1,.57,1.87v6.38H434.9v-5.93a1.49,1.49,0,0,0-.22-.94.92.92,0,0,0-.72-.26c-.78,0-1.17.47-1.17,1.42v5.71h-2.21V232Z" transform="translate(-116.5 -178.5)" style="fill:#fff"/><path d="M440.63,240.14a4.56,4.56,0,0,0,.06.75,2.08,2.08,0,0,0,.18.64,1.41,1.41,0,0,0,.34.45.76.76,0,0,0,.51.16.88.88,0,0,0,.81-.4,3,3,0,0,0,.36-1.21h2a3.46,3.46,0,0,1-.8,2.29,3.05,3.05,0,0,1-2.32.78,3.63,3.63,0,0,1-1.87-.4,2.46,2.46,0,0,1-1-1.06,4,4,0,0,1-.4-1.47c0-.54-.07-1.09-.07-1.63a11.08,11.08,0,0,1,.12-1.66A4,4,0,0,1,439,236a2.73,2.73,0,0,1,1-1,3.71,3.71,0,0,1,1.8-.37,3.56,3.56,0,0,1,1.57.31,2.43,2.43,0,0,1,1,.88,3.87,3.87,0,0,1,.48,1.38A11,11,0,0,1,445,239v.5h-4.37Zm2.19-2.87a2.21,2.21,0,0,0-.17-.64.94.94,0,0,0-.33-.4,1,1,0,0,0-.55-.13,1,1,0,0,0-.56.15,1.12,1.12,0,0,0-.34.4,1.62,1.62,0,0,0-.18.55,3.15,3.15,0,0,0-.06.61v.33h2.26C442.87,237.81,442.85,237.52,442.82,237.27Z" transform="translate(-116.5 -178.5)" style="fill:#fff"/><path d="M452.53,240a4.79,4.79,0,0,0,.06.79,1.81,1.81,0,0,0,.21.62,1.1,1.1,0,0,0,.41.42,1.36,1.36,0,0,0,.67.15,1.33,1.33,0,0,0,.67-.15,1.1,1.1,0,0,0,.41-.42,1.81,1.81,0,0,0,.21-.62,6.3,6.3,0,0,0,.05-.79v-8h2.31v8a4.69,4.69,0,0,1-.31,1.8,2.91,2.91,0,0,1-.81,1.13,3,3,0,0,1-1.17.56,6.75,6.75,0,0,1-1.36.14,6.68,6.68,0,0,1-1.36-.13,2.7,2.7,0,0,1-1.17-.52,2.73,2.73,0,0,1-.82-1.11,4.91,4.91,0,0,1-.3-1.87v-8h2.3Z" transform="translate(-116.5 -178.5)" style="fill:#fff"/><path d="M461.19,234.82v1h0a2.33,2.33,0,0,1,.91-.93,2.69,2.69,0,0,1,1.28-.3,2.17,2.17,0,0,1,1.63.58,2.58,2.58,0,0,1,.56,1.87v6.38h-2.2v-5.93a1.48,1.48,0,0,0-.23-.94.92.92,0,0,0-.72-.26c-.78,0-1.16.47-1.16,1.42v5.71h-2.21v-8.6Z" transform="translate(-116.5 -178.5)" style="fill:#fff"/><path d="M469.53,231.87v1.89h-2.21v-1.89Zm0,2.95v8.6h-2.21v-8.6Z" transform="translate(-116.5 -178.5)" style="fill:#fff"/><path d="M473.92,232.35v2.47h1.29v1.5h-1.29V241a1.27,1.27,0,0,0,.16.72c.1.15.31.22.63.22H475l.25,0v1.53q-.37,0-.72,0l-.73,0a5,5,0,0,1-1-.09,1,1,0,0,1-.63-.35,1.5,1.5,0,0,1-.29-.69,5.58,5.58,0,0,1-.08-1.09v-4.93H470.6v-1.5h1.12v-2.47Z" transform="translate(-116.5 -178.5)" style="fill:#fff"/><path d="M478,240.14a4.56,4.56,0,0,0,.06.75,2.4,2.4,0,0,0,.18.64,1.41,1.41,0,0,0,.34.45.8.8,0,0,0,.51.16.91.91,0,0,0,.82-.4,3,3,0,0,0,.35-1.21h2a3.46,3.46,0,0,1-.8,2.29,3.05,3.05,0,0,1-2.32.78,3.63,3.63,0,0,1-1.87-.4,2.46,2.46,0,0,1-1-1.06,3.8,3.8,0,0,1-.39-1.47c-.05-.54-.08-1.09-.08-1.63a11.08,11.08,0,0,1,.12-1.66,4,4,0,0,1,.48-1.43,2.68,2.68,0,0,1,1-1,3.64,3.64,0,0,1,1.79-.37,3.56,3.56,0,0,1,1.57.31,2.43,2.43,0,0,1,1,.88,3.52,3.52,0,0,1,.48,1.38,11,11,0,0,1,.13,1.8v.5H478Zm2.19-2.87a2.6,2.6,0,0,0-.16-.64,1,1,0,0,0-.34-.4,1,1,0,0,0-.55-.13.92.92,0,0,0-.55.15,1,1,0,0,0-.35.4,1.87,1.87,0,0,0-.18.55,3.15,3.15,0,0,0-.06.61v.33h2.26A7,7,0,0,0,480.21,237.27Z" transform="translate(-116.5 -178.5)" style="fill:#fff"/><path d="M488.09,242.51a2.19,2.19,0,0,1-.83.85,2.39,2.39,0,0,1-1.13.24,2.2,2.2,0,0,1-2-1,6.94,6.94,0,0,1-.64-3.44,7.09,7.09,0,0,1,.64-3.46,2.18,2.18,0,0,1,2-1.07,2.12,2.12,0,0,1,1.07.26,2.5,2.5,0,0,1,.79.77h0V232h2.21v11.42h-2.11v-.91Zm-2.17-1.27a.9.9,0,0,0,.93.71.93.93,0,0,0,1-.71,10.81,10.81,0,0,0,0-4.24.93.93,0,0,0-1-.71.9.9,0,0,0-.93.71,10.32,10.32,0,0,0,0,4.24Z" transform="translate(-116.5 -178.5)" style="fill:#fff"/><path d="M497.78,240.19a4.07,4.07,0,0,0,.06.73,1.33,1.33,0,0,0,.25.55,1.06,1.06,0,0,0,.47.35,1.75,1.75,0,0,0,.74.13,1.46,1.46,0,0,0,.95-.34,1.28,1.28,0,0,0,.43-1.07,1.9,1.9,0,0,0-.11-.66,1.28,1.28,0,0,0-.34-.5,2.37,2.37,0,0,0-.63-.41c-.26-.12-.59-.25-1-.38a8.45,8.45,0,0,1-1.33-.56,3.57,3.57,0,0,1-.93-.71,2.51,2.51,0,0,1-.56-.94,4.22,4.22,0,0,1-.17-1.24,3.19,3.19,0,0,1,.94-2.53,3.75,3.75,0,0,1,2.59-.83,5.77,5.77,0,0,1,1.42.16,3.17,3.17,0,0,1,1.12.55,2.63,2.63,0,0,1,.74,1,3.46,3.46,0,0,1,.26,1.4v.32H500.5a2.24,2.24,0,0,0-.29-1.26,1.06,1.06,0,0,0-1-.44,1.71,1.71,0,0,0-.64.11,1.14,1.14,0,0,0-.4.3.84.84,0,0,0-.21.42,2.07,2.07,0,0,0-.06.5,1.66,1.66,0,0,0,.23.89,1.91,1.91,0,0,0,.95.66l1.78.77a5,5,0,0,1,1.07.6,3,3,0,0,1,.67.67,2.31,2.31,0,0,1,.34.79,4.72,4.72,0,0,1,.1,1,3.15,3.15,0,0,1-1.05,2.64,4.61,4.61,0,0,1-2.92.82,3.8,3.8,0,0,1-2.79-.85,3.29,3.29,0,0,1-.84-2.43v-.46h2.3Z" transform="translate(-116.5 -178.5)" style="fill:#fff"/><path d="M507,232.35v2.47h1.28v1.5H507V241a1.2,1.2,0,0,0,.16.72c.1.15.31.22.63.22h.25l.24,0v1.53c-.24,0-.48,0-.71,0l-.73,0a5.13,5.13,0,0,1-1.05-.09,1,1,0,0,1-.62-.35,1.62,1.62,0,0,1-.3-.69,6.49,6.49,0,0,1-.08-1.09v-4.93h-1.12v-1.5h1.12v-2.47Z" transform="translate(-116.5 -178.5)" style="fill:#fff"/><path d="M509.2,237.25a3,3,0,0,1,.24-1.26,2.18,2.18,0,0,1,.65-.81,2.51,2.51,0,0,1,1-.45,5,5,0,0,1,1.18-.14,5.78,5.78,0,0,1,1.6.19,2.15,2.15,0,0,1,.94.55,1.74,1.74,0,0,1,.46.84,4.41,4.41,0,0,1,.12,1.06v4.53a7.22,7.22,0,0,0,0,.94,3.1,3.1,0,0,0,.22.72h-2.11a1.55,1.55,0,0,1-.17-.44c0-.15-.07-.3-.1-.45h0a1.83,1.83,0,0,1-.88.87,3.68,3.68,0,0,1-1.31.2,2.18,2.18,0,0,1-1-.2,1.64,1.64,0,0,1-.64-.55,2.7,2.7,0,0,1-.36-.79,3.85,3.85,0,0,1-.11-.88,3.56,3.56,0,0,1,.13-1,2.18,2.18,0,0,1,.39-.76,2.35,2.35,0,0,1,.67-.52,5.61,5.61,0,0,1,1-.36l1.25-.34a1.3,1.3,0,0,0,.68-.35,1,1,0,0,0,.2-.66,1.13,1.13,0,0,0-.24-.77,1,1,0,0,0-.79-.28,1,1,0,0,0-.77.3,1.22,1.22,0,0,0-.25.82v.24h-2Zm3.56,2.15a2.79,2.79,0,0,1-.47.15,1.73,1.73,0,0,0-1,.48,1.38,1.38,0,0,0-.29.91,1.72,1.72,0,0,0,.2.85.65.65,0,0,0,.64.35,1.51,1.51,0,0,0,.46-.07,1.24,1.24,0,0,0,.44-.23,1.28,1.28,0,0,0,.46-1v-1.7A1.94,1.94,0,0,1,512.76,239.4Z" transform="translate(-116.5 -178.5)" style="fill:#fff"/><path d="M519.76,232.35v2.47H521v1.5h-1.28V241a1.2,1.2,0,0,0,.16.72c.1.15.31.22.63.22h.25l.24,0v1.53c-.24,0-.48,0-.71,0l-.73,0a5,5,0,0,1-1-.09,1,1,0,0,1-.63-.35,1.5,1.5,0,0,1-.29-.69,5.58,5.58,0,0,1-.08-1.09v-4.93h-1.12v-1.5h1.12v-2.47Z" transform="translate(-116.5 -178.5)" style="fill:#fff"/><path d="M523.86,240.14a4.56,4.56,0,0,0,.06.75,2.08,2.08,0,0,0,.18.64,1.41,1.41,0,0,0,.34.45.8.8,0,0,0,.51.16.88.88,0,0,0,.81-.4,3,3,0,0,0,.36-1.21h2a3.46,3.46,0,0,1-.8,2.29,3.05,3.05,0,0,1-2.32.78,3.63,3.63,0,0,1-1.87-.4,2.46,2.46,0,0,1-1-1.06,4,4,0,0,1-.4-1.47c0-.54-.07-1.09-.07-1.63a11.08,11.08,0,0,1,.12-1.66,4,4,0,0,1,.48-1.43,2.73,2.73,0,0,1,1-1,3.71,3.71,0,0,1,1.8-.37,3.56,3.56,0,0,1,1.57.31,2.43,2.43,0,0,1,1,.88,3.87,3.87,0,0,1,.48,1.38,11,11,0,0,1,.13,1.8v.5h-4.37Zm2.19-2.87a2.21,2.21,0,0,0-.17-.64.94.94,0,0,0-.33-.4,1,1,0,0,0-.55-.13,1,1,0,0,0-.56.15,1.12,1.12,0,0,0-.34.4,1.62,1.62,0,0,0-.18.55,3.15,3.15,0,0,0-.06.61v.33h2.26C526.11,237.81,526.08,237.52,526.05,237.27Z" transform="translate(-116.5 -178.5)" style="fill:#fff"/><path d="M531.16,240.9a1.32,1.32,0,0,0,.29.9,1.08,1.08,0,0,0,.86.34,1.21,1.21,0,0,0,.81-.25.93.93,0,0,0,.31-.77.79.79,0,0,0-.24-.63,1.89,1.89,0,0,0-.56-.35l-1.55-.56a2.92,2.92,0,0,1-1.38-.9,2.33,2.33,0,0,1-.46-1.5,2.8,2.8,0,0,1,.17-1,2.18,2.18,0,0,1,.56-.82,3,3,0,0,1,1-.56,4.38,4.38,0,0,1,1.44-.21,3.32,3.32,0,0,1,2.23.64,2.3,2.3,0,0,1,.72,1.81v.35h-2a1.78,1.78,0,0,0-.21-1,.86.86,0,0,0-.76-.31,1.16,1.16,0,0,0-.73.23.79.79,0,0,0-.31.69.93.93,0,0,0,.2.58,1.56,1.56,0,0,0,.76.43l1.33.45a3,3,0,0,1,1.47.92,2.47,2.47,0,0,1,.43,1.54,2.79,2.79,0,0,1-.24,1.2,2.47,2.47,0,0,1-.66.84,2.78,2.78,0,0,1-1,.48,5.73,5.73,0,0,1-1.29.14,5.56,5.56,0,0,1-1.54-.18,2.24,2.24,0,0,1-1-.52,1.87,1.87,0,0,1-.5-.86,4,4,0,0,1-.15-1.13v-.3h2Z" transform="translate(-116.5 -178.5)" style="fill:#fff"/><path d="M545.87,234.74a2.41,2.41,0,0,0-.23-.62,1.52,1.52,0,0,0-.41-.46,1,1,0,0,0-.6-.19,1.24,1.24,0,0,0-1.2.93,9,9,0,0,0-.37,3.07q0,1,.06,1.86a7.09,7.09,0,0,0,.24,1.41,2,2,0,0,0,.48.9,1.05,1.05,0,0,0,.8.31,1.23,1.23,0,0,0,.46-.11,1.44,1.44,0,0,0,.46-.34,1.59,1.59,0,0,0,.36-.56,2,2,0,0,0,.15-.81V239h-1.52v-1.7h3.73v6.16h-1.7v-1h0a2.44,2.44,0,0,1-1,.95,3.18,3.18,0,0,1-1.4.28,3.46,3.46,0,0,1-1.72-.37,2.44,2.44,0,0,1-1-1.13,6,6,0,0,1-.51-1.9,25,25,0,0,1-.12-2.62,15.51,15.51,0,0,1,.18-2.52,5,5,0,0,1,.63-1.82,2.86,2.86,0,0,1,1.19-1.1,4.16,4.16,0,0,1,1.84-.36,3.51,3.51,0,0,1,2.72.93,3.94,3.94,0,0,1,.83,2.68h-2.21A2.94,2.94,0,0,0,545.87,234.74Z" transform="translate(-116.5 -178.5)" style="fill:#fff"/><path d="M549.75,237.17a3.91,3.91,0,0,1,.57-1.42,2.6,2.6,0,0,1,1-.86,3.76,3.76,0,0,1,1.59-.3,4,4,0,0,1,1.65.27,2.24,2.24,0,0,1,1,.85,3.85,3.85,0,0,1,.55,1.43,11.32,11.32,0,0,1,.16,2,9.38,9.38,0,0,1-.18,1.95,3.75,3.75,0,0,1-.58,1.42,2.32,2.32,0,0,1-1,.84,4.21,4.21,0,0,1-1.6.27,4.13,4.13,0,0,1-1.64-.25,2.14,2.14,0,0,1-1-.83,3.73,3.73,0,0,1-.55-1.42,10.58,10.58,0,0,1-.16-2A9.38,9.38,0,0,1,549.75,237.17Zm2.06,3.17a4.21,4.21,0,0,0,.15,1,1.4,1.4,0,0,0,.36.62.91.91,0,0,0,.64.22.93.93,0,0,0,.93-.7,10.48,10.48,0,0,0,0-4.64.93.93,0,0,0-.93-.7.91.91,0,0,0-.64.22,1.4,1.4,0,0,0-.36.62,4.21,4.21,0,0,0-.15,1c0,.38,0,.78,0,1.22S551.79,240,551.81,240.34Z" transform="translate(-116.5 -178.5)" style="fill:#fff"/><path d="M564,234.82l-2.16,8.6h-2.56l-2.23-8.6h2.31l1.23,6.16h0l1.17-6.16Z" transform="translate(-116.5 -178.5)" style="fill:#fff"/><path d="M566.85,240.14a4.56,4.56,0,0,0,.06.75,2.4,2.4,0,0,0,.18.64,1.41,1.41,0,0,0,.34.45.8.8,0,0,0,.51.16.91.91,0,0,0,.82-.4,3,3,0,0,0,.35-1.21h2a3.46,3.46,0,0,1-.8,2.29,3.05,3.05,0,0,1-2.32.78,3.63,3.63,0,0,1-1.87-.4,2.46,2.46,0,0,1-1-1.06,3.8,3.8,0,0,1-.39-1.47c-.05-.54-.08-1.09-.08-1.63a11.08,11.08,0,0,1,.12-1.66,4,4,0,0,1,.48-1.43,2.68,2.68,0,0,1,1-1,3.64,3.64,0,0,1,1.79-.37,3.56,3.56,0,0,1,1.57.31,2.43,2.43,0,0,1,1,.88,3.52,3.52,0,0,1,.48,1.38,11,11,0,0,1,.13,1.8v.5h-4.37Zm2.19-2.87a2.22,2.22,0,0,0-.16-.64,1,1,0,0,0-.34-.4,1,1,0,0,0-.55-.13.92.92,0,0,0-.55.15,1,1,0,0,0-.35.4,1.87,1.87,0,0,0-.18.55,3.15,3.15,0,0,0-.06.61v.33h2.26A7,7,0,0,0,569,237.27Z" transform="translate(-116.5 -178.5)" style="fill:#fff"/><path d="M574.64,234.82V236h0a3,3,0,0,1,.81-1,1.85,1.85,0,0,1,1.17-.38h.2l.2,0v2.12l-.34,0h-.35a2.24,2.24,0,0,0-.57.08,1.66,1.66,0,0,0-.53.27,1.33,1.33,0,0,0-.39.48,1.76,1.76,0,0,0-.14.73v5.16h-2.21v-8.6Z" transform="translate(-116.5 -178.5)" style="fill:#fff"/><path d="M580.13,234.82v1h0a2.29,2.29,0,0,1,.92-.93,2.63,2.63,0,0,1,1.28-.3,2.16,2.16,0,0,1,1.62.58,2.58,2.58,0,0,1,.57,1.87v6.38h-2.21v-5.93a1.56,1.56,0,0,0-.22-.94.92.92,0,0,0-.72-.26c-.78,0-1.17.47-1.17,1.42v5.71H578v-8.6Z" transform="translate(-116.5 -178.5)" style="fill:#fff"/><path d="M588.29,234.82v.88h0a2.49,2.49,0,0,1,.94-.85,2.8,2.8,0,0,1,1.24-.26,2.3,2.3,0,0,1,1.29.35,1.72,1.72,0,0,1,.69,1h0a1.93,1.93,0,0,1,.82-1,2.56,2.56,0,0,1,1.35-.35,1.93,1.93,0,0,1,1.63.67,3.08,3.08,0,0,1,.52,1.91v6.25h-2.21v-6a1.47,1.47,0,0,0-.2-.83.75.75,0,0,0-.67-.29,1.09,1.09,0,0,0-.84.35,1.7,1.7,0,0,0-.31,1.12v5.66H590.4v-6a1.4,1.4,0,0,0-.2-.83.72.72,0,0,0-.66-.29,1.09,1.09,0,0,0-.84.35,1.65,1.65,0,0,0-.31,1.12v5.66h-2.21v-8.6Z" transform="translate(-116.5 -178.5)" style="fill:#fff"/><path d="M600.36,240.14a4.57,4.57,0,0,0,0,.75,2.4,2.4,0,0,0,.19.64,1.25,1.25,0,0,0,.33.45.8.8,0,0,0,.51.16.89.89,0,0,0,.82-.4,2.86,2.86,0,0,0,.35-1.21h2a3.52,3.52,0,0,1-.8,2.29,3.08,3.08,0,0,1-2.32.78,3.67,3.67,0,0,1-1.88-.4,2.52,2.52,0,0,1-1-1.06,4.19,4.19,0,0,1-.39-1.47c-.05-.54-.07-1.09-.07-1.63a11.08,11.08,0,0,1,.12-1.66,4,4,0,0,1,.48-1.43,2.66,2.66,0,0,1,1-1,3.67,3.67,0,0,1,1.79-.37,3.61,3.61,0,0,1,1.58.31,2.5,2.5,0,0,1,1,.88,3.87,3.87,0,0,1,.48,1.38,12.34,12.34,0,0,1,.12,1.8v.5h-4.36Zm2.19-2.87a2.21,2.21,0,0,0-.17-.64.89.89,0,0,0-.34-.4,1,1,0,0,0-.55-.13.94.94,0,0,0-.55.15,1,1,0,0,0-.34.4,1.88,1.88,0,0,0-.19.55,3.14,3.14,0,0,0,0,.61v.33h2.25Q602.6,237.65,602.55,237.27Z" transform="translate(-116.5 -178.5)" style="fill:#fff"/><path d="M608.15,234.82v1h0a2.27,2.27,0,0,1,.91-.93,2.66,2.66,0,0,1,1.28-.3,2.17,2.17,0,0,1,1.63.58,2.63,2.63,0,0,1,.56,1.87v6.38h-2.2v-5.93a1.48,1.48,0,0,0-.23-.94.92.92,0,0,0-.72-.26c-.78,0-1.17.47-1.17,1.42v5.71H606v-8.6Z" transform="translate(-116.5 -178.5)" style="fill:#fff"/><path d="M616.88,232.35v2.47h1.28v1.5h-1.28V241a1.2,1.2,0,0,0,.16.72c.1.15.31.22.63.22h.25l.24,0v1.53c-.24,0-.48,0-.71,0l-.73,0a5,5,0,0,1-1-.09,1,1,0,0,1-.63-.35,1.5,1.5,0,0,1-.29-.69,5.58,5.58,0,0,1-.08-1.09v-4.93h-1.12v-1.5h1.12v-2.47Z" transform="translate(-116.5 -178.5)" style="fill:#fff"/><path d="M186.85,391.16h0v-7.83H189v11.43h-2.63l-2.81-8h0v8h-2.11V383.33h2.66Z" transform="translate(-116.5 -178.5)" style="fill:#fff"/><path d="M190.68,388.58a2.87,2.87,0,0,1,.24-1.25,2.19,2.19,0,0,1,.64-.82,2.65,2.65,0,0,1,1-.45,5,5,0,0,1,1.18-.13,5.42,5.42,0,0,1,1.6.19,2.18,2.18,0,0,1,.94.54,1.83,1.83,0,0,1,.46.84,4.49,4.49,0,0,1,.12,1.07v4.52a5.79,5.79,0,0,0,.06,1,3.35,3.35,0,0,0,.21.72H195a2.35,2.35,0,0,1-.17-.44c0-.16-.07-.31-.1-.46h0a1.89,1.89,0,0,1-.89.87,3.47,3.47,0,0,1-1.31.2,2,2,0,0,1-1-.2,1.56,1.56,0,0,1-.64-.55,2.35,2.35,0,0,1-.35-.79,3.26,3.26,0,0,1-.12-.87,4,4,0,0,1,.13-1,2.23,2.23,0,0,1,.39-.75,2.12,2.12,0,0,1,.68-.52,5.45,5.45,0,0,1,1-.37l1.25-.34a1.31,1.31,0,0,0,.69-.35,1,1,0,0,0,.19-.65,1.23,1.23,0,0,0-.23-.78,1,1,0,0,0-.8-.28.94.94,0,0,0-.76.3,1.26,1.26,0,0,0-.26.82v.24h-2Zm3.55,2.15a4.38,4.38,0,0,1-.47.16,1.68,1.68,0,0,0-1,.48,1.34,1.34,0,0,0-.28.91,1.75,1.75,0,0,0,.19.85.68.68,0,0,0,.64.35,1.9,1.9,0,0,0,.46-.07,1.26,1.26,0,0,0,.44-.24,1.13,1.13,0,0,0,.33-.41,1.31,1.31,0,0,0,.13-.61v-1.7A1.94,1.94,0,0,1,194.23,390.73Z" transform="translate(-116.5 -178.5)" style="fill:#fff"/><path d="M201.24,383.69v2.46h1.28v1.5h-1.28v4.66a1.35,1.35,0,0,0,.15.73.74.74,0,0,0,.63.21h.26l.24,0v1.54l-.72,0q-.35,0-.72,0a5,5,0,0,1-1.05-.09,1.15,1.15,0,0,1-.63-.35,1.54,1.54,0,0,1-.29-.7,5.58,5.58,0,0,1-.08-1.09v-4.93h-1.12v-1.5H199v-2.46Z" transform="translate(-116.5 -178.5)" style="fill:#fff"/><path d="M205.73,383.21v1.88h-2.21v-1.88Zm0,2.94v8.61h-2.21v-8.61Z" transform="translate(-116.5 -178.5)" style="fill:#fff"/><path d="M207.33,388.5a3.7,3.7,0,0,1,.58-1.41,2.49,2.49,0,0,1,1.05-.87,3.77,3.77,0,0,1,1.59-.29,4,4,0,0,1,1.65.26,2.36,2.36,0,0,1,1,.86,3.9,3.9,0,0,1,.54,1.42,10.58,10.58,0,0,1,.16,2,9.55,9.55,0,0,1-.18,2,3.76,3.76,0,0,1-.57,1.41,2.4,2.4,0,0,1-1.05.84,4.13,4.13,0,0,1-1.59.27,4.42,4.42,0,0,1-1.65-.24,2.27,2.27,0,0,1-1-.84,3.57,3.57,0,0,1-.54-1.42,10.58,10.58,0,0,1-.16-2A9.56,9.56,0,0,1,207.33,388.5Zm2.07,3.17a4.21,4.21,0,0,0,.15,1,1.34,1.34,0,0,0,.36.62.9.9,0,0,0,.64.23,1,1,0,0,0,.93-.71,10.89,10.89,0,0,0,0-4.64.94.94,0,0,0-.93-.7.89.89,0,0,0-.64.22,1.38,1.38,0,0,0-.36.63,4.12,4.12,0,0,0-.15,1c0,.37,0,.78,0,1.21S209.37,391.3,209.4,391.67Z" transform="translate(-116.5 -178.5)" style="fill:#fff"/><path d="M217.39,386.15v1h0a2.24,2.24,0,0,1,.91-.94,2.66,2.66,0,0,1,1.28-.29,2.19,2.19,0,0,1,1.62.57,2.6,2.6,0,0,1,.57,1.87v6.39H219.6v-5.94a1.44,1.44,0,0,0-.22-.93.89.89,0,0,0-.72-.27c-.78,0-1.17.48-1.17,1.43v5.71h-2.21v-8.61Z" transform="translate(-116.5 -178.5)" style="fill:#fff"/><path d="M223.43,388.58a2.87,2.87,0,0,1,.24-1.25,2.19,2.19,0,0,1,.64-.82,2.65,2.65,0,0,1,1-.45,5,5,0,0,1,1.18-.13,5.38,5.38,0,0,1,1.6.19,2.28,2.28,0,0,1,.95.54,1.91,1.91,0,0,1,.45.84,4.49,4.49,0,0,1,.12,1.07v4.52a5.79,5.79,0,0,0,.06,1,3.35,3.35,0,0,0,.21.72h-2.11a2.35,2.35,0,0,1-.17-.44c0-.16-.07-.31-.1-.46h0a1.85,1.85,0,0,1-.89.87,3.47,3.47,0,0,1-1.31.2,2.07,2.07,0,0,1-1-.2,1.56,1.56,0,0,1-.64-.55,2.35,2.35,0,0,1-.35-.79,3.24,3.24,0,0,1-.11-.87,4,4,0,0,1,.12-1,2,2,0,0,1,1.07-1.27,5.45,5.45,0,0,1,1-.37l1.25-.34a1.31,1.31,0,0,0,.69-.35,1,1,0,0,0,.19-.65,1.23,1.23,0,0,0-.23-.78,1,1,0,0,0-.79-.28,1,1,0,0,0-.77.3,1.26,1.26,0,0,0-.26.82v.24h-2Zm3.55,2.15c-.17.07-.33.12-.46.16a1.61,1.61,0,0,0-1,.48,1.29,1.29,0,0,0-.29.91,1.75,1.75,0,0,0,.19.85.68.68,0,0,0,.64.35,1.9,1.9,0,0,0,.46-.07,1.26,1.26,0,0,0,.44-.24,1,1,0,0,0,.33-.41,1.31,1.31,0,0,0,.13-.61v-1.7A1.94,1.94,0,0,1,227,390.73Z" transform="translate(-116.5 -178.5)" style="fill:#fff"/><path d="M233.59,383.33v11.43h-2.21V383.33Z" transform="translate(-116.5 -178.5)" style="fill:#fff"/><path d="M244,385.37a1.12,1.12,0,0,0-1.08-.56,1.07,1.07,0,0,0-.72.23,1.57,1.57,0,0,0-.44.75,6.76,6.76,0,0,0-.22,1.36c0,.56-.06,1.25-.06,2.06s0,1.56.08,2.09a4.31,4.31,0,0,0,.28,1.24,1.07,1.07,0,0,0,.46.59,1.25,1.25,0,0,0,.65.16,1.56,1.56,0,0,0,.57-.11,1,1,0,0,0,.45-.41,2.88,2.88,0,0,0,.31-.88,8.53,8.53,0,0,0,.11-1.5h2.3a10.92,10.92,0,0,1-.14,1.76,4.1,4.1,0,0,1-.54,1.46,2.67,2.67,0,0,1-1.1,1,4.13,4.13,0,0,1-1.85.35,4.43,4.43,0,0,1-2.06-.41,2.79,2.79,0,0,1-1.18-1.2,5.4,5.4,0,0,1-.53-1.87,24.06,24.06,0,0,1,0-4.8,5.39,5.39,0,0,1,.53-1.88,2.89,2.89,0,0,1,1.18-1.22,4.17,4.17,0,0,1,2.06-.44,3.92,3.92,0,0,1,1.94.4,2.77,2.77,0,0,1,1.07,1,3.61,3.61,0,0,1,.44,1.32,10.76,10.76,0,0,1,.09,1.34h-2.31A4.31,4.31,0,0,0,244,385.37Z" transform="translate(-116.5 -178.5)" style="fill:#fff"/><path d="M250.16,386.15v1.15h0a3.29,3.29,0,0,1,.82-1,1.84,1.84,0,0,1,1.17-.37h.2l.2,0v2.11l-.35,0h-.34a2,2,0,0,0-.58.08,1.5,1.5,0,0,0-.52.26,1.33,1.33,0,0,0-.39.48,1.76,1.76,0,0,0-.14.73v5.17h-2.21v-8.61Z" transform="translate(-116.5 -178.5)" style="fill:#fff"/><path d="M255.43,391.48a4.53,4.53,0,0,0,0,.74,2.29,2.29,0,0,0,.19.64,1.1,1.1,0,0,0,.33.45.8.8,0,0,0,.51.17.91.91,0,0,0,.82-.4,2.91,2.91,0,0,0,.35-1.22h2a3.48,3.48,0,0,1-.8,2.29,3.07,3.07,0,0,1-2.32.78,3.67,3.67,0,0,1-1.88-.4,2.44,2.44,0,0,1-1-1,4.31,4.31,0,0,1-.39-1.47c0-.55-.07-1.09-.07-1.64a11.18,11.18,0,0,1,.12-1.66,4,4,0,0,1,.48-1.42,2.61,2.61,0,0,1,1-1,3.79,3.79,0,0,1,1.79-.36,3.47,3.47,0,0,1,1.58.31,2.43,2.43,0,0,1,1,.88,3.89,3.89,0,0,1,.48,1.37,12.34,12.34,0,0,1,.12,1.8v.5h-4.36Zm2.19-2.87a2.12,2.12,0,0,0-.17-.64.84.84,0,0,0-.34-.4.92.92,0,0,0-.55-.14.94.94,0,0,0-.55.15,1.1,1.1,0,0,0-.34.4,2,2,0,0,0-.19.55,3.2,3.2,0,0,0,0,.61v.34h2.25Q257.67,389,257.62,388.61Z" transform="translate(-116.5 -178.5)" style="fill:#fff"/><path d="M265.49,393.85a2.28,2.28,0,0,1-.82.84,2.42,2.42,0,0,1-1.13.24,2.16,2.16,0,0,1-2-1,6.83,6.83,0,0,1-.64-3.44,7,7,0,0,1,.64-3.46,2.15,2.15,0,0,1,2-1.06,2.08,2.08,0,0,1,1.06.25,2.4,2.4,0,0,1,.79.77h0v-3.62h2.2v11.43h-2.11v-.91Zm-2.17-1.28a1,1,0,0,0,1.89,0,7.9,7.9,0,0,0,.22-2.12,8,8,0,0,0-.22-2.12,1,1,0,0,0-1.89,0,8.08,8.08,0,0,0-.21,2.12A8,8,0,0,0,263.32,392.57Z" transform="translate(-116.5 -178.5)" style="fill:#fff"/><path d="M271.55,383.21v1.88h-2.2v-1.88Zm0,2.94v8.61h-2.2v-8.61Z" transform="translate(-116.5 -178.5)" style="fill:#fff"/><path d="M276,383.69v2.46h1.28v1.5H276v4.66a1.25,1.25,0,0,0,.16.73.74.74,0,0,0,.63.21H277l.24,0v1.54l-.71,0c-.23,0-.47,0-.73,0a5,5,0,0,1-1-.09,1.11,1.11,0,0,1-.63-.35,1.54,1.54,0,0,1-.29-.7,5.58,5.58,0,0,1-.08-1.09v-4.93h-1.12v-1.5h1.12v-2.46Z" transform="translate(-116.5 -178.5)" style="fill:#fff"/><path d="M284.39,391.3a4.85,4.85,0,0,0,.05.79,2,2,0,0,0,.21.63,1.1,1.1,0,0,0,.42.41,1.2,1.2,0,0,0,.66.16,1.21,1.21,0,0,0,.67-.16,1.15,1.15,0,0,0,.41-.41,2,2,0,0,0,.21-.63,4.85,4.85,0,0,0,.05-.79v-8h2.31v8a4.44,4.44,0,0,1-.31,1.8,2.84,2.84,0,0,1-.81,1.13,2.77,2.77,0,0,1-1.17.56,6.09,6.09,0,0,1-1.36.14,7.56,7.56,0,0,1-1.36-.12,2.82,2.82,0,0,1-1.17-.52,2.73,2.73,0,0,1-.81-1.12,4.71,4.71,0,0,1-.31-1.87v-8h2.31Z" transform="translate(-116.5 -178.5)" style="fill:#fff"/><path d="M293,386.15v1h0a2.26,2.26,0,0,1,.92-.94,2.66,2.66,0,0,1,1.28-.29,2.19,2.19,0,0,1,1.62.57,2.6,2.6,0,0,1,.57,1.87v6.39h-2.21v-5.94a1.44,1.44,0,0,0-.22-.93.89.89,0,0,0-.72-.27c-.78,0-1.17.48-1.17,1.43v5.71h-2.21v-8.61Z" transform="translate(-116.5 -178.5)" style="fill:#fff"/><path d="M301.38,383.21v1.88h-2.21v-1.88Zm0,2.94v8.61h-2.21v-8.61Z" transform="translate(-116.5 -178.5)" style="fill:#fff"/><path d="M303,388.5a3.69,3.69,0,0,1,.57-1.41,2.62,2.62,0,0,1,1.05-.87,3.77,3.77,0,0,1,1.59-.29,4,4,0,0,1,1.65.26,2.26,2.26,0,0,1,1,.86,3.73,3.73,0,0,1,.55,1.42,11.49,11.49,0,0,1,.16,2,9.55,9.55,0,0,1-.18,2,3.77,3.77,0,0,1-.58,1.41,2.32,2.32,0,0,1-1,.84,4.21,4.21,0,0,1-1.6.27,4.34,4.34,0,0,1-1.64-.24,2.22,2.22,0,0,1-1-.84,3.73,3.73,0,0,1-.55-1.42,10.58,10.58,0,0,1-.16-2A9.52,9.52,0,0,1,303,388.5Zm2.06,3.17a4.21,4.21,0,0,0,.15,1,1.34,1.34,0,0,0,.36.62.91.91,0,0,0,.64.23.94.94,0,0,0,.93-.71,10.48,10.48,0,0,0,0-4.64.93.93,0,0,0-.93-.7.91.91,0,0,0-.64.22,1.38,1.38,0,0,0-.36.63,4.12,4.12,0,0,0-.15,1c0,.37,0,.78,0,1.21S305,391.3,305,391.67Z" transform="translate(-116.5 -178.5)" style="fill:#fff"/><path d="M313,386.15v1h0a2.26,2.26,0,0,1,.92-.94,2.66,2.66,0,0,1,1.28-.29,2.19,2.19,0,0,1,1.62.57,2.6,2.6,0,0,1,.57,1.87v6.39h-2.21v-5.94a1.5,1.5,0,0,0-.22-.93.89.89,0,0,0-.72-.27c-.78,0-1.17.48-1.17,1.43v5.71h-2.21v-8.61Z" transform="translate(-116.5 -178.5)" style="fill:#fff"/><path d="M327.63,383.33l3,11.43h-2.4l-.53-2.42h-3l-.53,2.42h-2.4l3-11.43Zm-.3,7.12-1.1-5.13h0l-1.1,5.13Z" transform="translate(-116.5 -178.5)" style="fill:#fff"/><path d="M335.94,393.85a2.22,2.22,0,0,1-.83.84,2.38,2.38,0,0,1-1.12.24,2.16,2.16,0,0,1-2-1,6.83,6.83,0,0,1-.64-3.44A7,7,0,0,1,332,387a2.15,2.15,0,0,1,2-1.06,2.08,2.08,0,0,1,1.06.25,2.5,2.5,0,0,1,.79.77h0v-3.62h2.21v11.43H336v-.91Zm-2.17-1.28a.91.91,0,0,0,.94.72.92.92,0,0,0,1-.72,8,8,0,0,0,.21-2.12,8.08,8.08,0,0,0-.21-2.12.92.92,0,0,0-1-.71.91.91,0,0,0-.94.71,8,8,0,0,0-.22,2.12A7.9,7.9,0,0,0,333.77,392.57Z" transform="translate(-116.5 -178.5)" style="fill:#fff"/><path d="M341.83,386.15V387h0a2.47,2.47,0,0,1,.93-.85,2.8,2.8,0,0,1,1.24-.25,2.22,2.22,0,0,1,1.29.35,1.68,1.68,0,0,1,.7,1h0a1.93,1.93,0,0,1,.82-1,2.57,2.57,0,0,1,1.36-.34,1.94,1.94,0,0,1,1.62.66,3,3,0,0,1,.52,1.91v6.26h-2.21v-6a1.47,1.47,0,0,0-.2-.83.74.74,0,0,0-.66-.29,1.07,1.07,0,0,0-.84.35,1.66,1.66,0,0,0-.32,1.12v5.67h-2.2v-6a1.47,1.47,0,0,0-.2-.83.78.78,0,0,0-.67-.29,1.09,1.09,0,0,0-.84.35,1.67,1.67,0,0,0-.31,1.12v5.67h-2.21v-8.61Z" transform="translate(-116.5 -178.5)" style="fill:#fff"/><path d="M354.29,383.21v1.88h-2.21v-1.88Zm0,2.94v8.61h-2.21v-8.61Z" transform="translate(-116.5 -178.5)" style="fill:#fff"/><path d="M358.11,386.15v1h0a2.26,2.26,0,0,1,.92-.94,2.66,2.66,0,0,1,1.28-.29,2.19,2.19,0,0,1,1.62.57,2.6,2.6,0,0,1,.57,1.87v6.39h-2.21v-5.94a1.44,1.44,0,0,0-.22-.93.89.89,0,0,0-.72-.27c-.78,0-1.17.48-1.17,1.43v5.71H356v-8.61Z" transform="translate(-116.5 -178.5)" style="fill:#fff"/><path d="M366.45,383.21v1.88h-2.21v-1.88Zm0,2.94v8.61h-2.21v-8.61Z" transform="translate(-116.5 -178.5)" style="fill:#fff"/><path d="M369.78,392.23a1.37,1.37,0,0,0,.29.9,1.09,1.09,0,0,0,.86.35,1.21,1.21,0,0,0,.81-.26.93.93,0,0,0,.31-.77.82.82,0,0,0-.24-.63,1.87,1.87,0,0,0-.56-.34l-1.55-.56a2.93,2.93,0,0,1-1.38-.91,2.31,2.31,0,0,1-.46-1.49,3,3,0,0,1,.17-1,2.22,2.22,0,0,1,.56-.83,3,3,0,0,1,1-.56,4.68,4.68,0,0,1,1.44-.2,3.26,3.26,0,0,1,2.23.64,2.28,2.28,0,0,1,.72,1.8v.36h-2a1.82,1.82,0,0,0-.21-1,.86.86,0,0,0-.76-.31,1.22,1.22,0,0,0-.73.23.82.82,0,0,0-.31.7.92.92,0,0,0,.2.57,1.57,1.57,0,0,0,.76.44l1.33.44a3.13,3.13,0,0,1,1.47.92,2.5,2.5,0,0,1,.43,1.55,2.75,2.75,0,0,1-.24,1.19,2.29,2.29,0,0,1-.66.84,2.78,2.78,0,0,1-1,.48,5.21,5.21,0,0,1-1.29.14,6,6,0,0,1-1.54-.17,2.35,2.35,0,0,1-1-.53,1.82,1.82,0,0,1-.5-.86,3.89,3.89,0,0,1-.15-1.12v-.31h2Z" transform="translate(-116.5 -178.5)" style="fill:#fff"/><path d="M378.11,383.69v2.46h1.28v1.5h-1.28v4.66a1.25,1.25,0,0,0,.16.73.74.74,0,0,0,.63.21h.25l.24,0v1.54l-.71,0c-.23,0-.47,0-.73,0a5.13,5.13,0,0,1-1.05-.09,1.08,1.08,0,0,1-.62-.35,1.67,1.67,0,0,1-.3-.7,6.49,6.49,0,0,1-.08-1.09v-4.93h-1.11v-1.5h1.11v-2.46Z" transform="translate(-116.5 -178.5)" style="fill:#fff"/><path d="M382.43,386.15v1.15h0a3.29,3.29,0,0,1,.82-1,1.84,1.84,0,0,1,1.17-.37h.2l.2,0v2.11l-.35,0h-.34a2,2,0,0,0-.58.08,1.5,1.5,0,0,0-.52.26,1.33,1.33,0,0,0-.39.48,1.76,1.76,0,0,0-.14.73v5.17h-2.21v-8.61Z" transform="translate(-116.5 -178.5)" style="fill:#fff"/><path d="M385.79,388.58a2.87,2.87,0,0,1,.24-1.25,2.22,2.22,0,0,1,.65-.82,2.51,2.51,0,0,1,1-.45,5,5,0,0,1,1.18-.13,5.42,5.42,0,0,1,1.6.19,2.24,2.24,0,0,1,.94.54,1.93,1.93,0,0,1,.46.84,4.49,4.49,0,0,1,.12,1.07v4.52a7.51,7.51,0,0,0,.05,1,3.42,3.42,0,0,0,.22.72H390.1a1.82,1.82,0,0,1-.17-.44c0-.16-.07-.31-.11-.46h0a1.81,1.81,0,0,1-.89.87,3.41,3.41,0,0,1-1.3.2,2.12,2.12,0,0,1-1-.2,1.63,1.63,0,0,1-.64-.55,2.57,2.57,0,0,1-.35-.79,3.7,3.7,0,0,1-.11-.87,3.58,3.58,0,0,1,.13-1,1.92,1.92,0,0,1,.39-.75,2.19,2.19,0,0,1,.67-.52,5.3,5.3,0,0,1,1-.37l1.24-.34a1.31,1.31,0,0,0,.69-.35,1,1,0,0,0,.19-.65,1.17,1.17,0,0,0-.23-.78,1.19,1.19,0,0,0-1.56,0,1.25,1.25,0,0,0-.25.82v.24h-2Zm3.55,2.15a4.27,4.27,0,0,1-.46.16,1.61,1.61,0,0,0-1,.48,1.34,1.34,0,0,0-.29.91,1.87,1.87,0,0,0,.19.85.69.69,0,0,0,.64.35,2,2,0,0,0,.47-.07,1.36,1.36,0,0,0,.44-.24,1.24,1.24,0,0,0,.33-.41,1.44,1.44,0,0,0,.12-.61v-1.7A1.94,1.94,0,0,1,389.34,390.73Z" transform="translate(-116.5 -178.5)" style="fill:#fff"/><path d="M396.35,383.69v2.46h1.28v1.5h-1.28v4.66a1.35,1.35,0,0,0,.15.73.78.78,0,0,0,.64.21h.25l.24,0v1.54l-.71,0c-.23,0-.47,0-.73,0a5.06,5.06,0,0,1-1.05-.09,1.08,1.08,0,0,1-.62-.35,1.67,1.67,0,0,1-.3-.7,6.49,6.49,0,0,1-.08-1.09v-4.93H393v-1.5h1.12v-2.46Z" transform="translate(-116.5 -178.5)" style="fill:#fff"/><path d="M400.85,383.21v1.88h-2.21v-1.88Zm0,2.94v8.61h-2.21v-8.61Z" transform="translate(-116.5 -178.5)" style="fill:#fff"/><path d="M402.45,388.5a3.86,3.86,0,0,1,.57-1.41,2.62,2.62,0,0,1,1.05-.87,3.8,3.8,0,0,1,1.59-.29,4,4,0,0,1,1.65.26,2.26,2.26,0,0,1,1,.86,3.73,3.73,0,0,1,.55,1.42,11.49,11.49,0,0,1,.16,2,9.55,9.55,0,0,1-.18,2,3.77,3.77,0,0,1-.58,1.41,2.32,2.32,0,0,1-1,.84,4.21,4.21,0,0,1-1.6.27,4.34,4.34,0,0,1-1.64-.24,2.22,2.22,0,0,1-1-.84,3.73,3.73,0,0,1-.55-1.42,11.49,11.49,0,0,1-.16-2A9.52,9.52,0,0,1,402.45,388.5Zm2.06,3.17a4.21,4.21,0,0,0,.15,1,1.34,1.34,0,0,0,.36.62.91.91,0,0,0,.64.23.94.94,0,0,0,.93-.71,10.48,10.48,0,0,0,0-4.64.93.93,0,0,0-.93-.7.91.91,0,0,0-.64.22,1.38,1.38,0,0,0-.36.63,4.12,4.12,0,0,0-.15,1c0,.37,0,.78,0,1.21S404.49,391.3,404.51,391.67Z" transform="translate(-116.5 -178.5)" style="fill:#fff"/><path d="M412.51,386.15v1h0a2.26,2.26,0,0,1,.92-.94,2.63,2.63,0,0,1,1.28-.29,2.19,2.19,0,0,1,1.62.57,2.6,2.6,0,0,1,.57,1.87v6.39h-2.21v-5.94a1.5,1.5,0,0,0-.22-.93.89.89,0,0,0-.72-.27c-.78,0-1.17.48-1.17,1.43v5.71H410.4v-8.61Z" transform="translate(-116.5 -178.5)" style="fill:#fff"/><path d="M420.8,394.34a6.81,6.81,0,0,1-.09,1.13,2.56,2.56,0,0,1-.33.93,2,2,0,0,1-.64.64,2.6,2.6,0,0,1-1.05.31v-1.12a.87.87,0,0,0,.62-.45,1.6,1.6,0,0,0,.21-.81v-.21h-.83v-2.5h2.11Z" transform="translate(-116.5 -178.5)" style="fill:#fff"/><path d="M426,388.58a2.87,2.87,0,0,1,.24-1.25,2.22,2.22,0,0,1,.65-.82,2.51,2.51,0,0,1,1-.45,5,5,0,0,1,1.18-.13,5.42,5.42,0,0,1,1.6.19,2.24,2.24,0,0,1,.94.54,1.93,1.93,0,0,1,.46.84,4.49,4.49,0,0,1,.12,1.07v4.52a6,6,0,0,0,0,1,3.42,3.42,0,0,0,.22.72h-2.11a1.49,1.49,0,0,1-.17-.44c0-.16-.07-.31-.11-.46h0a1.81,1.81,0,0,1-.89.87,3.41,3.41,0,0,1-1.3.2,2.09,2.09,0,0,1-1-.2,1.63,1.63,0,0,1-.64-.55,2.57,2.57,0,0,1-.35-.79,3.7,3.7,0,0,1-.11-.87,3.58,3.58,0,0,1,.13-1,1.92,1.92,0,0,1,.39-.75,2.08,2.08,0,0,1,.67-.52,5.3,5.3,0,0,1,1-.37l1.24-.34a1.31,1.31,0,0,0,.69-.35,1,1,0,0,0,.19-.65,1.17,1.17,0,0,0-.23-.78,1.19,1.19,0,0,0-1.56,0,1.25,1.25,0,0,0-.25.82v.24h-2Zm3.55,2.15a4.27,4.27,0,0,1-.46.16,1.61,1.61,0,0,0-1,.48,1.34,1.34,0,0,0-.29.91,1.87,1.87,0,0,0,.19.85.68.68,0,0,0,.64.35,2,2,0,0,0,.47-.07,1.36,1.36,0,0,0,.44-.24,1.24,1.24,0,0,0,.33-.41,1.44,1.44,0,0,0,.12-.61v-1.7A1.94,1.94,0,0,1,429.5,390.73Z" transform="translate(-116.5 -178.5)" style="fill:#fff"/><path d="M440.05,391.3a6.3,6.3,0,0,0,.05.79,2,2,0,0,0,.21.63,1.1,1.1,0,0,0,.42.41,1.2,1.2,0,0,0,.66.16,1.21,1.21,0,0,0,.67-.16,1.15,1.15,0,0,0,.41-.41,2,2,0,0,0,.21-.63,4.79,4.79,0,0,0,.06-.79v-8H445v8a4.63,4.63,0,0,1-.3,1.8,3,3,0,0,1-.82,1.13,2.77,2.77,0,0,1-1.17.56,6.09,6.09,0,0,1-1.36.14,7.56,7.56,0,0,1-1.36-.12,2.88,2.88,0,0,1-1.17-.52,2.73,2.73,0,0,1-.81-1.12,4.71,4.71,0,0,1-.31-1.87v-8h2.31Z" transform="translate(-116.5 -178.5)" style="fill:#fff"/><path d="M448.83,394.76h-2.11v-2.5h2.11Z" transform="translate(-116.5 -178.5)" style="fill:#fff"/><path d="M452.51,391.53a4,4,0,0,0,.06.72,1.51,1.51,0,0,0,.24.56,1.25,1.25,0,0,0,.48.35,1.93,1.93,0,0,0,.74.13,1.47,1.47,0,0,0,1-.35,1.29,1.29,0,0,0,.43-1.06,1.92,1.92,0,0,0-.11-.67,1.35,1.35,0,0,0-.34-.5,2.37,2.37,0,0,0-.63-.41,8.35,8.35,0,0,0-1-.37,8.45,8.45,0,0,1-1.33-.56,3.66,3.66,0,0,1-.94-.72,2.54,2.54,0,0,1-.55-.94,3.91,3.91,0,0,1-.17-1.24,3.2,3.2,0,0,1,.94-2.53,3.8,3.8,0,0,1,2.59-.83,5.76,5.76,0,0,1,1.42.17,3,3,0,0,1,1.12.54,2.51,2.51,0,0,1,.73,1,3.33,3.33,0,0,1,.27,1.4v.32h-2.21a2.29,2.29,0,0,0-.29-1.25,1,1,0,0,0-1-.44,1.53,1.53,0,0,0-.64.11,1.13,1.13,0,0,0-.41.29,1,1,0,0,0-.2.43,2,2,0,0,0-.06.49,1.72,1.72,0,0,0,.22.89,2.07,2.07,0,0,0,1,.67l1.78.76a6.38,6.38,0,0,1,1.07.6,3.07,3.07,0,0,1,.67.68,2.23,2.23,0,0,1,.34.79,4.72,4.72,0,0,1,.1,1,3.14,3.14,0,0,1-1.05,2.63,4.61,4.61,0,0,1-2.92.82,3.85,3.85,0,0,1-2.79-.84,3.33,3.33,0,0,1-.84-2.44v-.46h2.3Z" transform="translate(-116.5 -178.5)" style="fill:#fff"/><path d="M461.29,394.76h-2.11v-2.5h2.11Z" transform="translate(-116.5 -178.5)" style="fill:#fff"/><path d="M471.53,386.07a2.22,2.22,0,0,0-.24-.62,1.48,1.48,0,0,0-.4-.46,1,1,0,0,0-.6-.18,1.25,1.25,0,0,0-1.2.92,9,9,0,0,0-.37,3.08c0,.68,0,1.3.06,1.85a7.94,7.94,0,0,0,.23,1.42,2.13,2.13,0,0,0,.48.89,1.1,1.1,0,0,0,.81.32,1.09,1.09,0,0,0,.46-.12,1.41,1.41,0,0,0,.46-.33,1.64,1.64,0,0,0,.36-.57,2,2,0,0,0,.15-.81v-1.17h-1.52V388.6h3.72v6.16h-1.69V393.7h0a2.38,2.38,0,0,1-1,.95,3.18,3.18,0,0,1-1.4.28,3.57,3.57,0,0,1-1.72-.36,2.52,2.52,0,0,1-1-1.14,5.89,5.89,0,0,1-.51-1.9,24.92,24.92,0,0,1-.12-2.61,15.72,15.72,0,0,1,.18-2.53,5,5,0,0,1,.63-1.82,2.84,2.84,0,0,1,1.19-1.09,4,4,0,0,1,1.83-.37,3.45,3.45,0,0,1,2.72.94,3.86,3.86,0,0,1,.84,2.68H471.6A3.7,3.7,0,0,0,471.53,386.07Z" transform="translate(-116.5 -178.5)" style="fill:#fff"/><path d="M475.41,388.5a3.69,3.69,0,0,1,.57-1.41,2.62,2.62,0,0,1,1-.87,3.77,3.77,0,0,1,1.59-.29,4,4,0,0,1,1.65.26,2.31,2.31,0,0,1,1,.86,3.57,3.57,0,0,1,.54,1.42,10.58,10.58,0,0,1,.16,2,9.6,9.6,0,0,1-.17,2,3.77,3.77,0,0,1-.58,1.41,2.29,2.29,0,0,1-1.05.84,4.13,4.13,0,0,1-1.59.27,4.42,4.42,0,0,1-1.65-.24,2.32,2.32,0,0,1-1-.84,3.9,3.9,0,0,1-.54-1.42,10.58,10.58,0,0,1-.16-2A9.52,9.52,0,0,1,475.41,388.5Zm2.06,3.17a4.21,4.21,0,0,0,.15,1,1.34,1.34,0,0,0,.36.62.91.91,0,0,0,.64.23.94.94,0,0,0,.93-.71,10.48,10.48,0,0,0,0-4.64.93.93,0,0,0-.93-.7.91.91,0,0,0-.64.22,1.38,1.38,0,0,0-.36.63,4.12,4.12,0,0,0-.15,1c0,.37,0,.78,0,1.21S477.45,391.3,477.47,391.67Z" transform="translate(-116.5 -178.5)" style="fill:#fff"/><path d="M489.65,386.15l-2.16,8.61h-2.57l-2.22-8.61H485l1.24,6.16h0l1.17-6.16Z" transform="translate(-116.5 -178.5)" style="fill:#fff"/><path d="M492.51,391.48a6,6,0,0,0,.05.74,2.29,2.29,0,0,0,.19.64,1.12,1.12,0,0,0,.34.45.77.77,0,0,0,.51.17.9.9,0,0,0,.81-.4,2.91,2.91,0,0,0,.35-1.22h2a3.43,3.43,0,0,1-.8,2.29,3.07,3.07,0,0,1-2.32.78,3.63,3.63,0,0,1-1.87-.4,2.46,2.46,0,0,1-1-1,4.31,4.31,0,0,1-.39-1.47c0-.55-.07-1.09-.07-1.64a11.18,11.18,0,0,1,.12-1.66,4,4,0,0,1,.48-1.42,2.61,2.61,0,0,1,1-1,3.82,3.82,0,0,1,1.79-.36,3.45,3.45,0,0,1,1.58.31,2.43,2.43,0,0,1,1,.88,3.89,3.89,0,0,1,.48,1.37,12.27,12.27,0,0,1,.13,1.8v.5h-4.37Zm2.19-2.87a2.12,2.12,0,0,0-.17-.64.88.88,0,0,0-.33-.4,1,1,0,0,0-.56-.14,1,1,0,0,0-.55.15,1.1,1.1,0,0,0-.34.4,2,2,0,0,0-.19.55,4.3,4.3,0,0,0-.05.61v.34h2.25Q494.75,389,494.7,388.61Z" transform="translate(-116.5 -178.5)" style="fill:#fff"/><path d="M500.3,386.15v1.15h0a3.29,3.29,0,0,1,.82-1,1.84,1.84,0,0,1,1.17-.37h.2l.2,0v2.11l-.35,0H502a2,2,0,0,0-.58.08,1.63,1.63,0,0,0-.53.26,1.31,1.31,0,0,0-.38.48,1.76,1.76,0,0,0-.14.73v5.17h-2.21v-8.61Z" transform="translate(-116.5 -178.5)" style="fill:#fff"/><path d="M505.79,386.15v1h0a2.3,2.3,0,0,1,.91-.94,2.68,2.68,0,0,1,1.28-.29,2.2,2.2,0,0,1,1.63.57,2.6,2.6,0,0,1,.57,1.87v6.39H508v-5.94a1.43,1.43,0,0,0-.23-.93.89.89,0,0,0-.72-.27c-.78,0-1.16.48-1.16,1.43v5.71h-2.21v-8.61Z" transform="translate(-116.5 -178.5)" style="fill:#fff"/><path d="M514,386.15V387h0a2.49,2.49,0,0,1,.94-.85,2.77,2.77,0,0,1,1.24-.25,2.22,2.22,0,0,1,1.29.35,1.71,1.71,0,0,1,.69,1h0a2,2,0,0,1,.83-1,2.56,2.56,0,0,1,1.35-.34,1.92,1.92,0,0,1,1.62.66,3,3,0,0,1,.52,1.91v6.26h-2.2v-6a1.47,1.47,0,0,0-.2-.83.78.78,0,0,0-.67-.29,1.09,1.09,0,0,0-.84.35,1.67,1.67,0,0,0-.31,1.12v5.67h-2.21v-6a1.4,1.4,0,0,0-.2-.83.74.74,0,0,0-.66-.29,1.09,1.09,0,0,0-.84.35,1.67,1.67,0,0,0-.31,1.12v5.67h-2.21v-8.61Z" transform="translate(-116.5 -178.5)" style="fill:#fff"/><path d="M526,391.48a4.52,4.52,0,0,0,.06.74,2.69,2.69,0,0,0,.18.64,1.22,1.22,0,0,0,.34.45.8.8,0,0,0,.51.17.92.92,0,0,0,.82-.4,2.91,2.91,0,0,0,.35-1.22h2a3.43,3.43,0,0,1-.8,2.29,3.05,3.05,0,0,1-2.32.78,3.63,3.63,0,0,1-1.87-.4,2.38,2.38,0,0,1-1-1,4.31,4.31,0,0,1-.39-1.47c0-.55-.07-1.09-.07-1.64a11.18,11.18,0,0,1,.12-1.66,4,4,0,0,1,.48-1.42,2.61,2.61,0,0,1,1-1,3.79,3.79,0,0,1,1.79-.36,3.5,3.5,0,0,1,1.58.31,2.34,2.34,0,0,1,1,.88,3.53,3.53,0,0,1,.48,1.37,11,11,0,0,1,.13,1.8v.5H526Zm2.2-2.87A2.47,2.47,0,0,0,528,388a.84.84,0,0,0-.34-.4,1.12,1.12,0,0,0-1.1,0,1.13,1.13,0,0,0-.35.4,2.37,2.37,0,0,0-.18.55,3.23,3.23,0,0,0-.06.61v.34h2.26Q528.26,389,528.21,388.61Z" transform="translate(-116.5 -178.5)" style="fill:#fff"/><path d="M533.81,386.15v1h0a2.24,2.24,0,0,1,.91-.94,2.66,2.66,0,0,1,1.28-.29,2.18,2.18,0,0,1,1.62.57,2.6,2.6,0,0,1,.57,1.87v6.39H536v-5.94a1.44,1.44,0,0,0-.22-.93.89.89,0,0,0-.72-.27c-.78,0-1.17.48-1.17,1.43v5.71h-2.21v-8.61Z" transform="translate(-116.5 -178.5)" style="fill:#fff"/><path d="M542.54,383.69v2.46h1.28v1.5h-1.28v4.66a1.35,1.35,0,0,0,.15.73c.1.14.31.21.64.21h.25l.24,0v1.54l-.71,0c-.23,0-.47,0-.73,0a5.06,5.06,0,0,1-1-.09,1.08,1.08,0,0,1-.62-.35,1.67,1.67,0,0,1-.3-.7,6.49,6.49,0,0,1-.08-1.09v-4.93h-1.12v-1.5h1.12v-2.46Z" transform="translate(-116.5 -178.5)" style="fill:#fff"/><path d="M553.29,383.33l3,11.43h-2.4l-.53-2.42h-3l-.53,2.42h-2.4l3-11.43Zm-.3,7.12-1.11-5.13h0l-1.1,5.13Z" transform="translate(-116.5 -178.5)" style="fill:#fff"/><path d="M563.66,394.33a3.38,3.38,0,0,1-.82,2.49,3.77,3.77,0,0,1-2.76.83,3.44,3.44,0,0,1-2.17-.6,2,2,0,0,1-.76-1.7h2.11a.76.76,0,0,0,.34.66,1.35,1.35,0,0,0,.34.17,1.23,1.23,0,0,0,.39.07,1,1,0,0,0,.95-.44,2,2,0,0,0,.27-1.07v-1.13h0a2.61,2.61,0,0,1-.83.76,1.87,1.87,0,0,1-1,.29,2.21,2.21,0,0,1-2-1,6.32,6.32,0,0,1-.66-3.35,13.65,13.65,0,0,1,.09-1.54,4.71,4.71,0,0,1,.36-1.41,2.53,2.53,0,0,1,.82-1,2.31,2.31,0,0,1,1.43-.4,2.08,2.08,0,0,1,1,.25,2,2,0,0,1,.82.93h0v-1h2.11Zm-4.37-2.76a2.54,2.54,0,0,0,.16.72,1.25,1.25,0,0,0,.33.49.89.89,0,0,0,.57.19.92.92,0,0,0,.58-.19,1.19,1.19,0,0,0,.37-.5,2.7,2.7,0,0,0,.19-.78,7.57,7.57,0,0,0,.06-1,6.79,6.79,0,0,0-.25-2.22.9.9,0,0,0-.9-.66,1,1,0,0,0-.59.16,1.1,1.1,0,0,0-.36.52,3.66,3.66,0,0,0-.16,1c0,.4,0,.89,0,1.47A7.51,7.51,0,0,0,559.29,391.57Z" transform="translate(-116.5 -178.5)" style="fill:#fff"/><path d="M567.26,391.48a4.52,4.52,0,0,0,.06.74,2.3,2.3,0,0,0,.18.64,1.22,1.22,0,0,0,.34.45.8.8,0,0,0,.51.17.92.92,0,0,0,.82-.4,3.07,3.07,0,0,0,.35-1.22h2a3.43,3.43,0,0,1-.8,2.29,3.05,3.05,0,0,1-2.32.78,3.63,3.63,0,0,1-1.87-.4,2.38,2.38,0,0,1-1-1,3.9,3.9,0,0,1-.39-1.47c0-.55-.08-1.09-.08-1.64a11.18,11.18,0,0,1,.12-1.66,4,4,0,0,1,.48-1.42,2.64,2.64,0,0,1,1-1,3.76,3.76,0,0,1,1.79-.36,3.43,3.43,0,0,1,1.57.31,2.36,2.36,0,0,1,1,.88,3.53,3.53,0,0,1,.48,1.37,11,11,0,0,1,.13,1.8v.5h-4.37Zm2.19-2.87a2.14,2.14,0,0,0-.16-.64.9.9,0,0,0-.34-.4.94.94,0,0,0-.55-.14.92.92,0,0,0-.55.15,1.13,1.13,0,0,0-.35.4,2,2,0,0,0-.18.55,3.23,3.23,0,0,0-.06.61v.34h2.26A7,7,0,0,0,569.45,388.61Z" transform="translate(-116.5 -178.5)" style="fill:#fff"/><path d="M575.05,386.15v1h0a2.18,2.18,0,0,1,.91-.94,2.66,2.66,0,0,1,1.28-.29,2.19,2.19,0,0,1,1.62.57,2.6,2.6,0,0,1,.57,1.87v6.39h-2.21v-5.94a1.44,1.44,0,0,0-.22-.93.89.89,0,0,0-.72-.27c-.78,0-1.17.48-1.17,1.43v5.71h-2.21v-8.61Z" transform="translate(-116.5 -178.5)" style="fill:#fff"/><path d="M585.21,388.63a2.21,2.21,0,0,0-.15-.55,1,1,0,0,0-.29-.4.82.82,0,0,0-.52-.15,1,1,0,0,0-1,.72,4,4,0,0,0-.17.92,12.37,12.37,0,0,0,0,1.3,13.7,13.7,0,0,0,0,1.37,4,4,0,0,0,.17.93,1.11,1.11,0,0,0,.36.54,1,1,0,0,0,.6.17A.86.86,0,0,0,585,393a3.44,3.44,0,0,0,.26-1.54h2.11a3.94,3.94,0,0,1-.76,2.59,3.17,3.17,0,0,1-2.52.88,4.5,4.5,0,0,1-1.45-.2,2,2,0,0,1-1-.72,3.44,3.44,0,0,1-.62-1.39,9.42,9.42,0,0,1-.21-2.17,8,8,0,0,1,.26-2.2,3.58,3.58,0,0,1,.72-1.39,2.54,2.54,0,0,1,1.1-.73,4.85,4.85,0,0,1,1.41-.2,2.89,2.89,0,0,1,2.31.89,3.58,3.58,0,0,1,.78,2.43h-2.11C585.25,389,585.23,388.83,585.21,388.63Z" transform="translate(-116.5 -178.5)" style="fill:#fff"/><path d="M588.92,395.93a1.1,1.1,0,0,0,.88-.32,1.58,1.58,0,0,0,.31-.85l-2.42-8.61H590l1.28,6h0l1.12-6h2.21l-2.08,8a15.06,15.06,0,0,1-.56,1.74,2.91,2.91,0,0,1-.62,1,1.7,1.7,0,0,1-.86.47,5.64,5.64,0,0,1-1.27.12h-.9v-1.65A3.66,3.66,0,0,0,588.92,395.93Z" transform="translate(-116.5 -178.5)" style="fill:#fff"/><path d="M214.41,272.33h22.92l29.76,52.8h.24v-52.8h21V358H265.41l-29.76-53.4h-.24V358h-21Z" transform="translate(-116.5 -178.5)" style="fill:#fff"/><path d="M360.45,302.93c-1.2-8.64-7.92-13.2-17.28-13.2-14.4,0-19.92,12.72-19.92,25.44s5.52,25.44,19.92,25.44c10.44,0,16.44-6,17.28-15.84h22.32c-1.2,22.08-17.4,35-39.12,35-25.92,0-42.72-19.8-42.72-44.64s16.8-44.63,42.72-44.63c18.48,0,38.52,11.75,39.12,32.39Z" transform="translate(-116.5 -178.5)" style="fill:#fff"/><path d="M468.68,322.61c0,24.84-11.4,37.2-37.31,37.2s-37.32-12.36-37.32-37.2V272.33h22.32v51.6c0,11,4.08,16.68,15,16.68s15-5.64,15-16.68v-51.6h22.32Z" transform="translate(-116.5 -178.5)" style="fill:#fff"/><path d="M506.85,272.33h22.67l32,85.68H538.28L533,342.65H503.13L497.73,358H474.81Zm1.44,53.76h19.43l-9.47-30H518Z" transform="translate(-116.5 -178.5)" style="fill:#fff"/></svg>