<?xml version="1.0" encoding="UTF-8"?>
<svg width="35px" height="38px" viewBox="0 0 35 38" version="1.1" xmlns="http://www.w3.org/2000/svg" xmlns:xlink="http://www.w3.org/1999/xlink">
    <!-- Generator: sketchtool 51.2 (57519) - http://www.bohemiancoding.com/sketch -->
    <title>CBE0F85E-9832-4C45-AD3A-3FA95455C190-429-000106965E0BF71D</title>
    <desc>Created with sketchtool.</desc>
    <defs>
        <polygon id="path-1" points="0 38 35 38 35 0.141068493 0 0.141068493"></polygon>
    </defs>
    <g id="Sub-Nav-Ten" stroke="none" stroke-width="1" fill="none" fill-rule="evenodd">
        <g id="Default-View---Exclusive-Offers" transform="translate(-605.000000, -1872.000000)">
            <g id="Footer" transform="translate(0.000000, 1728.000000)">
                <g id="EHL-logo-gray">
                    <g transform="translate(605.000000, 144.000000)">
                        <g id="Group-37">
                            <path d="M17.3270741,0 L0,11.5580542 L0,16.1473153 L2.247,16.1473153 L2.247,30 L32.8395926,30 L32.8395926,16.1473153 L35,16.1473153 L35,11.5580542 L17.3278519,0 L17.3270741,0 Z M6.00625926,14.0711499 L17.3273333,6.11875988 L28.8210741,14.0711499 L28.8210741,26 L6.00625926,26 L6.00625926,14.0711499 Z" id="Fill-1" fill="#666666"></path>
                            <polygon id="Fill-2" fill="#666666" points="11 17 23 17 23 13 11 13"></polygon>
                            <polygon id="Fill-3" fill="#666666" points="11 23 23 23 23 19 11 19"></polygon>
                        </g>
                    </g>
                </g>
            </g>
        </g>
    </g>
</svg>