<?xml version="1.0" encoding="UTF-8"?>
<svg width="27px" height="27px" viewBox="0 0 35 35" version="1.1" xmlns="http://www.w3.org/2000/svg" xmlns:xlink="http://www.w3.org/1999/xlink">
    <!-- Generator: sketchtool 51.2 (57519) - http://www.bohemiancoding.com/sketch -->
    <title>0F7C62FD-09C3-4180-8ED2-8C3D46608587</title>
    <desc>Created with sketchtool.</desc>
    <defs></defs>
    <g id="Page-1" stroke="none" stroke-width="1" fill="none" fill-rule="evenodd">
        <g id="Desktop" transform="translate(-217.000000, -645.000000)" fill="#E21E00">
            <g id="flag-red-circle" transform="translate(217.000000, 645.000000)">
                <path d="M27.582,12.0670903 C25.652,10.1140903 23.863,9.13609035 22.178,9.01609035 C19.851,8.84909035 17.72,10.0370903 15.687,10.0370903 C13.147,10.0370903 11.3,9.63709035 11,9.58809035 L14.134,21.2860903 C18.321,21.0270903 20.662,17.8950903 24.195,17.8950903 C26.803,17.8950903 30.251,20.6430903 30.251,20.6430903 C30.251,20.6430903 27.635,12.1210903 27.582,12.0670903" id="Fill-5"></path>
                <path d="M17.4990004,0 L17.4970004,0 C7.83200038,0.002 -0.00199961714,7.838 3.82860875e-07,17.502 C0.00100038286,27.166 7.83600038,35 17.5000004,35 L17.5020004,35 C27.1670004,34.999 35.0010004,27.163 35.0000004,17.498 C34.9980004,7.834 27.1630004,0 17.4990004,0 M17.4990004,2 C26.0450004,2 32.9980004,8.953 33.0000004,17.498 C33.0000004,21.639 31.3890004,25.531 28.4610004,28.459 C25.5340004,31.387 21.6420004,33 17.5000004,33 C8.95400038,33 2.00000038,26.048 2.00000038,17.502 C1.99800038,8.955 8.95100038,2.001 17.4970004,2 L17.4990004,2" id="Fill-7"></path>
                <polygon id="Fill-9" points="8.856 9 7 9 13.907 34.497 15.638 34.033"></polygon>
            </g>
        </g>
    </g>
</svg>