<?xml version="1.0" encoding="UTF-8"?>
<svg width="100px" height="26px" viewBox="0 0 100 26" version="1.1" xmlns="http://www.w3.org/2000/svg" xmlns:xlink="http://www.w3.org/1999/xlink">
    <title>99BAB54F-0648-434B-BA8F-B5AB14A0D8C6</title>
    <g id="Desktop" stroke="none" stroke-width="1" fill="none" fill-rule="evenodd">
        <g id="You-Are-Leaving-RBFCU---1-Title-Case" transform="translate(-405.000000, -247.000000)" fill="#002D74">
            <g id="Group" transform="translate(355.000000, 197.000000)">
                <path d="M129.954955,57.792994 L129.954955,56.9224527 L129.830181,56.7981808 C128.16525,56.8396047 127.000055,56.8810287 126.417777,56.8810287 C125.626263,56.8810287 124.87698,56.8396047 124.128977,56.7981808 L124.003563,56.9224527 L124.003563,57.792994 L124.128977,57.917266 C125.002394,57.9586899 125.501489,58.0415379 125.709446,58.1250232 C125.959633,58.2072339 126.084407,58.3735672 126.167589,58.5392632 C126.250772,58.7878072 126.292363,59.2855324 126.334594,60.0311644 C126.334594,60.8602816 126.375546,62.394244 126.375546,64.6317771 L126.375546,67.2854621 C126.375546,67.98967 126.334594,68.693878 126.250772,69.3993605 C126.167589,70.1449924 126.042816,70.7255657 125.876451,71.0569576 C125.709446,71.4297736 125.460538,71.7618029 125.043985,72.1346189 C124.21152,72.8808881 123.046324,73.2543413 121.506807,73.2543413 C119.218007,73.2543413 117.761033,72.5488588 117.178115,71.0983816 C116.886976,70.3521124 116.762202,68.40391 116.762202,65.1301397 L116.762202,62.477092 C116.762202,60.4460416 116.803794,59.1198364 116.929207,58.4978392 C116.970159,58.2486579 117.137164,58.0835992 117.34512,58.0001139 C117.469254,57.9586899 117.969629,57.917266 118.843046,57.875842 L118.96782,57.75157 L118.96782,56.8810287 L118.843046,56.7567568 C118.052172,56.7981808 116.762202,56.8396047 114.889315,56.8396047 C113.058659,56.8396047 111.726459,56.7981808 110.935585,56.7567568 L110.810811,56.8810287 L110.810811,57.75157 L110.935585,57.875842 C111.810281,57.917266 112.309376,57.9586899 112.43415,58.0001139 C112.683698,58.0835992 112.850703,58.2072339 112.891654,58.4978392 C113.016428,59.1198364 113.058659,60.4460416 113.058659,62.477092 L113.058659,65.7929236 C113.058659,68.9430592 113.141842,70.8912617 113.349798,71.6375309 C113.682528,72.7980401 114.39022,73.7100053 115.430642,74.3313653 C116.67902,75.0776345 118.468724,75.4504505 120.715933,75.4504505 C123.171098,75.4504505 125.085576,74.7462425 126.417777,73.295128 C127.415968,72.2174668 127.915063,70.3935364 127.915063,67.865398 L127.915063,63.9275692 C127.915063,62.518516 127.915063,61.4408548 127.957294,60.6945856 C127.998885,59.6997724 128.040477,59.0363512 128.123659,58.7463832 C128.248433,58.2072339 128.831351,57.917266 129.830181,57.917266 L129.954955,57.792994 Z M97.2396038,65.371115 C97.2396038,63.1405778 97.8166658,61.3235029 99.0113299,60.0424683 C100.205994,58.720786 101.812393,58.0596274 103.872333,58.0596274 C105.891734,58.0596274 107.415786,58.6382206 108.486929,59.8773374 C108.569276,60.2901646 108.611083,60.992606 108.611083,62.0253092 L108.73397,62.1497925 L109.475726,62.1497925 L109.599247,62.0253092 C109.681594,60.4559306 109.846921,59.0510478 110.135135,57.8944965 L109.969808,57.6880829 C107.992848,56.9443588 105.932907,56.5315315 103.831793,56.5315315 C100.535382,56.5315315 97.9401862,57.3991038 96.0449396,59.0929657 C94.1908665,60.7449097 93.2432432,62.9754469 93.2432432,65.7845774 C93.2432432,67.519722 93.6138045,69.1303832 94.3967339,70.6178315 C96.0449396,73.8397892 99.0525034,75.4504505 103.501772,75.4504505 C105.72704,75.4504505 107.745173,74.9550578 109.5169,73.9636373 L110.093328,72.6419551 L109.76394,72.352976 C108.157542,73.2205483 106.468162,73.6746583 104.779417,73.6746583 C102.925344,73.6746583 101.400658,73.2205483 100.288341,72.352976 C98.269574,70.7410445 97.2396038,68.3866591 97.2396038,65.371115 L97.2396038,65.371115 Z M93.5275143,58.3361809 L93.6936937,56.8813473 L93.5689,56.7567568 C88.9725427,56.7982869 86.073635,56.8398171 84.9141993,56.8398171 C83.091956,56.8398171 81.7669775,56.7982869 80.9800129,56.7567568 L80.8558559,56.8813473 L80.8558559,57.7541197 L80.9800129,57.8787101 C81.8497489,57.9202403 82.346377,57.9617705 82.4711708,58.0033006 C82.7194848,58.0869999 82.8436419,58.2109515 82.8850276,58.5023016 C83.0091846,59.125254 83.091956,60.4554972 83.091956,62.4917531 L83.091956,69.3065338 C83.091956,71.3434287 83.0505703,72.6730329 82.9264132,73.2959854 C82.8850276,73.5458053 82.7194848,73.7119259 82.5125564,73.7534561 C82.3877627,73.7943474 81.8911346,73.8365164 81.0213986,73.8780466 L80.8972415,74.0026371 L80.8972415,74.8754095 L81.0213986,75 C82.3049913,74.9584698 83.34027,74.9169397 84.085849,74.9169397 L89.2622425,75 L89.3863995,74.8754095 L89.3863995,74.0026371 L89.2622425,73.8780466 C88.1028067,73.7943474 87.4813848,73.7534561 87.4399991,73.7534561 C87.1916851,73.6703958 87.0261423,73.5458053 86.9847567,73.2959854 C86.8605996,72.6730329 86.8192139,71.3434287 86.8192139,69.3065338 L86.8192139,66.2320237 C87.2744564,66.1898546 87.813107,66.1898546 88.3925065,66.1898546 C88.8897713,66.1898546 89.3863995,66.2320237 89.8836644,66.2320237 C90.6292433,66.2729149 91.0431001,66.4805658 91.2086428,66.7719159 C91.2914142,66.9380365 91.3327998,67.4785676 91.3327998,68.35134 L91.3741855,68.5174607 L92.2439215,68.5174607 L92.3680785,68.3922312 C92.3266929,67.4363985 92.3266929,66.4805658 92.3266929,65.525372 C92.3266929,64.7356599 92.3266929,63.8635264 92.3680785,62.9070548 L92.2439215,62.7824643 L91.4569569,62.7824643 L91.3327998,62.9070548 C91.2914142,63.8213573 91.2500285,64.4027797 91.0844858,64.6104305 C91.0017144,64.7356599 90.8775574,64.7771901 90.6292433,64.8187202 C89.4277852,64.8602504 88.6408206,64.8602504 88.1855781,64.8602504 L86.7364426,64.8187202 L86.7364426,63.0731754 C86.7364426,60.7877385 86.7778283,59.2504835 86.8605996,58.3777111 C87.6061786,58.3361809 88.1855781,58.2946507 88.5173002,58.2946507 C90.7113779,58.2946507 91.9128361,58.4192412 92.0783788,58.7099524 C92.2025358,58.876073 92.2853072,59.5411946 92.2853072,60.7046782 L92.4094642,60.8292687 L93.1550432,60.8292687 L93.2792002,60.7046782 L93.3619716,59.6657851 C93.4447429,59.0843628 93.4861286,58.6684222 93.5275143,58.3361809 L93.5275143,58.3361809 Z M80.6838955,60.3973914 C80.6838955,59.6526005 80.4757869,58.9904935 80.1023404,58.4117063 C79.354809,57.3361799 77.7773966,56.7980987 75.4109588,56.7980987 C74.8708977,56.7980987 74.2478485,56.7980987 73.5003172,56.8394406 C72.5459539,56.8807826 71.4658318,56.9221245 70.3039983,56.9221245 C68.4354891,56.9221245 67.1478967,56.8807826 66.3588713,56.8394406 L66.1935334,56.9634664 L66.1935334,57.8322832 L66.3173772,57.956309 C67.1893907,57.9976509 67.6879577,58.0389929 67.8124399,58.0803348 C68.0614042,58.1636547 68.1858864,58.2870445 68.2280188,58.5770741 C68.3518626,59.1972032 68.3933567,60.5214172 68.3933567,62.5484443 L68.3933567,69.0429447 L68.3518626,71.8974466 C68.3518626,72.8902891 68.3110069,73.4283703 68.2280188,73.593102 C67.9369221,74.2138671 67.1478967,74.0484994 66.649968,73.7177639 C66.2765215,73.4697123 65.4874961,72.4348917 64.3243859,70.6565524 L62.3320329,67.6366828 C61.8749599,66.9332338 61.4185253,66.1890789 60.9614524,65.444288 C63.5774929,64.4508095 64.905941,62.8378378 64.905941,60.4800753 C64.905941,59.9006521 64.8229529,59.4045489 64.6569767,58.9904935 C64.3243859,58.1223128 63.7019751,57.5428896 62.7884675,57.1701761 C62.0824302,56.9221245 61.0029464,56.7567568 59.5085221,56.7567568 C58.8854729,56.7567568 57.8889773,56.7980987 56.6020232,56.8394406 C55.93748,56.8807826 55.1069605,56.8807826 54.0689708,56.8807826 C52.2840881,56.8807826 50.95564,56.8394406 50.1251205,56.7980987 L50,56.9221245 L50,57.7909412 L50.1251205,57.9149671 C50.9964957,57.956309 51.4950627,57.9976509 51.6195449,58.0389929 C51.8691475,58.1223128 51.9936297,58.2457026 52.0344854,58.5357322 C52.1596059,59.1564973 52.2011,60.4800753 52.2011,62.5071023 L52.2011,69.2916324 C52.2011,71.3180234 52.1596059,72.6416014 52.0344854,73.2630026 C51.9936297,73.5104182 51.8270151,73.676422 51.6195449,73.7177639 C51.4950627,73.7591058 50.9964957,73.7998117 50.1251205,73.8417897 L50,73.9658155 L50,74.8339962 L50.1251205,74.9586581 C50.9141459,74.9173161 52.242594,74.8759742 54.0689708,74.8759742 C55.8544919,74.8759742 57.1835783,74.9173161 58.0140978,74.9586581 L58.1379416,74.8339962 L58.1379416,73.9658155 L58.0140978,73.8417897 C57.1414459,73.7998117 56.6435173,73.7591058 56.5190351,73.7177639 C56.2700708,73.63508 56.1449502,73.5104182 56.0626005,73.2630026 C55.93748,72.6416014 55.8959859,71.3180234 55.8959859,69.2916324 L55.8959859,62.6311281 C55.8959859,60.6041011 55.93748,59.1972032 56.0211064,58.3290225 C56.436047,58.2457026 56.8509875,58.2457026 57.2665664,58.2457026 C58.2630621,58.2457026 59.0099551,58.3703644 59.5085221,58.618416 C60.670994,59.1151553 61.2104167,60.0660199 61.2104167,61.5142598 C61.2104167,62.3410986 61.0444405,63.0445475 60.670994,63.6653126 C60.2975475,64.2854417 59.8819686,64.6994971 59.467028,64.9062068 C58.968461,65.1548945 58.3045562,65.3196262 57.4740367,65.3196262 L57.0176021,65.3196262 L56.8924816,65.7336816 C57.2250724,65.9817332 57.4740367,66.2717628 57.6400129,66.5191784 L59.0520875,68.6708673 L62.2484064,73.9658155 C62.5395032,74.4619188 62.7054794,74.7932903 62.7469734,75 C63.7019751,74.9586581 64.4080123,74.9173161 64.8229529,74.9173161 L69.8469253,74.9173161 C71.3004939,74.9586581 72.7534242,75 74.2063545,75 C75.8258993,75 77.1543474,74.7106064 78.1923371,74.1311833 C80.2683166,72.972973 81.3063063,71.2773175 81.3063063,69.1669705 C81.3063063,66.4784725 79.5214236,65.0302326 75.9918755,64.8648649 C76.6149247,64.7408391 77.2373355,64.5341294 77.8603847,64.3274197 C78.3583134,64.12071 78.8153863,63.8720223 79.2718209,63.4586029 C80.2268225,62.6311281 80.6838955,61.6382856 80.6838955,60.3973914 L80.6838955,60.3973914 Z M72.0720721,65.5821988 C72.5246662,65.5405405 72.8944533,65.5405405 73.223153,65.5405405 C75.8957341,65.5405405 77.2522523,66.8136429 77.2522523,69.3585851 C77.2522523,70.6316874 76.9646401,71.5759418 76.3483282,72.3150607 C75.6902968,73.0535484 74.7857406,73.4234234 73.5935722,73.4234234 C72.9766282,73.4234234 72.4835788,73.3817651 72.1131595,73.3413692 C72.0720721,72.7253316 72.0720721,72.1099252 72.0720721,71.4528605 L72.0720721,65.5821988 Z M76.8018018,60.9029648 C76.8018018,61.5194082 76.6763192,62.1762741 76.3835264,62.7106093 C75.8809524,63.6965397 74.8764479,64.1891892 73.2863578,64.1891892 C72.7001287,64.1891892 72.2818533,64.1891892 72.0720721,64.1487667 L72.0720721,60.65664 C72.0720721,59.9170343 72.0720721,59.0953203 72.1138996,58.1921296 C72.5746461,58.1093898 73.1184041,58.1093898 73.7882883,58.1093898 C75.7972973,58.0683357 76.8018018,59.0138436 76.8018018,60.9029648 L76.8018018,60.9029648 Z M143.243243,75 C143.164281,71.4660079 142.41353,66.8918919 142.41353,66.8918919 C142.41353,66.8918919 141.346929,71.7153308 140.990991,75 L143.243243,75 Z M139.564773,75 C140.828693,70.8760031 140.990991,66.2162162 140.990991,66.2162162 C140.990991,66.2162162 138.138556,72.2367191 136.997457,74.463576 C136.915994,74.6284345 136.793801,74.8345075 136.711712,75 L139.564773,75 Z M135.237715,75 C138.120725,70.6953387 138.738739,66.8918919 138.738739,66.8918919 C138.738739,66.8918919 136.061523,69.7758029 133.796527,72.4926424 C133.013878,73.3286425 132.272388,74.1639999 131.531532,75 L135.237715,75 Z M144.149991,61.1065469 L150,56.7464003 L142.698174,56.7464003 L140.540859,50 L138.341445,56.7464003 L131.081081,56.7464003 L137.014014,61.1065469 L134.690851,68.018018 L140.540859,63.7394582 L146.39023,68.018018 C146.431692,68.018018 144.149991,61.1065469 144.149991,61.1065469 L144.149991,61.1065469 Z" id="logo_blue"></path>
            </g>
        </g>
    </g>
</svg>