<?xml version="1.0" encoding="UTF-8"?>
<svg width="30px" height="30px" viewBox="0 0 30 30" version="1.1" xmlns="http://www.w3.org/2000/svg" xmlns:xlink="http://www.w3.org/1999/xlink">
    <title>Group 15</title>
    <defs>
        <polygon id="path-1" points="0 0.000214285714 29.9999464 0.000214285714 29.9999464 30 0 30"></polygon>
    </defs>
    <g id="Forgot-Information-" stroke="none" stroke-width="1" fill="none" fill-rule="evenodd">
        <g id="Forgot-Cards" transform="translate(-263.000000, -254.000000)">
            <g id="pssword" transform="translate(263.000000, 254.000000)">
                <g id="Group-3">
                    <mask id="mask-2" fill="white">
                        <use xlink:href="#path-1"></use>
                    </mask>
                    <g id="Clip-2"></g>
                    <path d="M29.9999464,14.9980714 C29.998875,6.71378571 23.282625,-0.000857142857 14.9978036,0.000214285714 C6.71405357,0.00075 -0.001125,6.71753571 -5.35714286e-05,15.0023571 C0.00155357143,23.2861071 6.71780357,30.0012857 15.0020893,30.0002143 C23.286375,29.9991429 30.0010179,23.2823571 29.9999464,14.9980714" id="Fill-1" fill="#27AAE1" mask="url(#mask-2)"></path>
                </g>
                <path d="M21.1993929,11.4463393 C20.6588571,11.9863393 19.7829643,11.9863393 19.2429643,11.4463393 C18.7024286,10.9058036 18.7024286,10.0299107 19.2429643,9.48991071 C19.7829643,8.949375 20.6588571,8.949375 21.1993929,9.48991071 C21.7399286,10.0299107 21.7399286,10.9058036 21.1993929,11.4463393 M22.0924286,8.596875 C20.1199286,6.624375 16.9227857,6.624375 14.9502857,8.596875 C13.3849286,10.1622321 13.0667143,12.4979464 13.9865357,14.3815179 L7.52314286,20.8449107 C7.43046429,20.9375893 7.38225,21.065625 7.39135714,21.1963393 L7.50332143,22.8565179 C7.51510714,23.0284821 7.65117857,23.165625 7.82367857,23.1774107 L9.49189286,23.296875 C9.62260714,23.3065179 9.75171429,23.2583036 9.84492857,23.1650893 L10.3608214,22.6491964 L10.3608214,21.4952679 L11.51475,21.4952679 L11.5351071,21.474375 L11.5351071,20.3204464 L12.6890357,20.3204464 L12.7093929,20.3000893 L12.7093929,19.1461607 L13.8638571,19.1461607 L13.8842143,19.1252679 L13.8842143,17.9713393 L15.0381429,17.9713393 L16.30725,16.7027679 C18.1913571,17.6220536 20.5270714,17.304375 22.0924286,15.7384821 C24.0649286,13.7665179 24.0649286,10.5688393 22.0924286,8.596875" id="Fill-4" fill="#FFFFFF"></path>
            </g>
        </g>
    </g>
</svg>