<?xml version="1.0" encoding="UTF-8" standalone="no"?><!DOCTYPE svg PUBLIC "-//W3C//DTD SVG 1.1//EN" "http://www.w3.org/Graphics/SVG/1.1/DTD/svg11.dtd"><svg width="100%" height="100%" viewBox="0 0 78 78" version="1.1" xmlns="http://www.w3.org/2000/svg" xmlns:xlink="http://www.w3.org/1999/xlink" xml:space="preserve" style="fill-rule:evenodd;clip-rule:evenodd;stroke-linejoin:round;stroke-miterlimit:1.41421;"><g id="Layer_2"><path d="M68.689,48.62c0.008,-0.008 0.016,-0.016 0.023,-0.023c11.056,-11.056 11.056,-29.25 0,-40.305c-11.055,-11.056 -29.249,-11.056 -40.305,0c-9.859,9.859 -11.108,25.578 -2.929,36.87l-24.169,24.169c-1.745,1.745 -1.745,4.618 0,6.364c1.746,1.745 4.619,1.745 6.364,0l24.169,-24.169c11.285,8.163 26.982,6.925 36.847,-2.906l0,0ZM33.475,43.528c-8.262,-8.262 -8.262,-21.86 0,-30.122c8.263,-8.263 21.861,-8.263 30.123,0c8.263,8.262 8.263,21.86 0,30.122c0,0 0,0 0,0c-8.262,8.263 -21.86,8.263 -30.123,0c-0.002,-0.002 -0.004,-0.004 -0.007,-0.007l0.007,0.007Z" style="fill:#fff;fill-rule:nonzero;"/><path d="M49.011,9.974c-6.571,0.014 -12.387,4.39 -14.22,10.7c2.8,-3.38 8.08,-5.69 14.22,-5.69c6.14,0 11.42,2.31 14.22,5.69c-1.833,-6.31 -7.649,-10.686 -14.22,-10.7l0,0Z" style="fill:#fff;fill-rule:nonzero;"/></g></svg>