<?xml version="1.0" encoding="UTF-8"?>
<svg width="30px" height="30px" viewBox="0 0 30 30" version="1.1" xmlns="http://www.w3.org/2000/svg" xmlns:xlink="http://www.w3.org/1999/xlink">
    <title>Avatar</title>
    <g id="Forgot-Information-" stroke="none" stroke-width="1" fill="none" fill-rule="evenodd">
        <g id="Forgot-Cards" transform="translate(-83.000000, -254.000000)">
            <g id="Avatar" transform="translate(83.000000, 254.000000)">
                <path d="M14.8970926,0 C6.66857431,0.00119193428 -0.00119193428,6.6724481 0,14.9009664 C0.000893950709,23.1294847 6.6724481,29.7995489 14.9009664,29.798357 C23.1294847,29.797463 29.7992509,23.1259089 29.798357,14.8973906 C29.797165,6.66887229 23.1256109,-0.000893950709 14.8970926,0 Z" id="Fill-1" fill="#27AAE1"></path>
                <path d="M14.652009,17.2516804 C10.5147423,17.2516804 6.82288275,19.2384466 4.39133682,22.3490814 C6.71153099,25.6187453 10.524466,27.7551307 14.8389544,27.7551307 C19.0414638,27.7551307 22.7712771,25.7300971 25.1055863,22.6028379 C22.6796863,19.3469754 18.900941,17.2516804 14.652009,17.2516804" id="Fill-6" fill="#FFFFFF"></path>
                <path d="M20.6599851,10.1731591 C20.6599851,6.98002987 18.071292,4.39133682 14.8781628,4.39133682 C11.6850336,4.39133682 9.09634055,6.98002987 9.09634055,10.1731591 C9.09634055,13.3662883 11.6850336,15.9549813 14.8781628,15.9549813 C18.071292,15.9549813 20.6599851,13.3662883 20.6599851,10.1731591" id="Fill-4" fill="#FFFFFF"></path>
            </g>
        </g>
    </g>
</svg>