<?xml version="1.0" encoding="UTF-8"?>
<svg width="14px" height="25px" viewBox="0 0 14 25" version="1.1" xmlns="http://www.w3.org/2000/svg" xmlns:xlink="http://www.w3.org/1999/xlink">
    <!-- Generator: sketchtool 51.2 (57519) - http://www.bohemiancoding.com/sketch -->
    <title>31C693AF-C02D-436A-9865-06A4AF28BBAC</title>
    <desc>Created with sketchtool.</desc>
    <defs></defs>
    <g id="Symbols" stroke="none" stroke-width="1" fill="none" fill-rule="evenodd">
        <g id="New-Header-1b" transform="translate(-1113.000000, -40.000000)" fill="#FFFFFF">
            <g id="Header-2">
                <g id="phone-white-2" transform="translate(1113.000000, 40.000000)">
                    <g id="Page-1">
                        <path d="M1.84572954,25 C0.830515094,25 -0.000114911081,24.1834612 -0.000114911081,23.1854692 L-0.000114911081,1.81453076 C-0.000114911081,0.816538843 0.830515094,0 1.84572954,0 L12.1541555,0 C13.16937,0 14,0.816538843 14,1.81453076 L14,23.1854692 C14,24.1834612 13.16937,25 12.1541555,25 L1.84572954,25 Z M8.23529412,23.3333333 C8.23529412,22.8728294 7.8665245,22.5 7.41197495,22.5 C6.95700491,22.5 6.58823529,22.8728294 6.58823529,23.3333333 C6.58823529,23.7938372 6.95700491,24.1666667 7.41197495,24.1666667 C7.8665245,24.1666667 8.23529412,23.7938372 8.23529412,23.3333333 Z M1.64705882,20.8333333 L12.3529412,20.8333333 L12.3529412,2.5 L1.64705882,2.5 L1.64705882,20.8333333 Z M5.00040077,1.511988 L8.99973043,1.511988 L8.99973043,1.10855733 L5.00040077,1.10855733 L5.00040077,1.511988 Z" id="Combined-Shape"></path>
                    </g>
                </g>
            </g>
        </g>
    </g>
</svg>